<svg preserveAspectRatio="none" width="100%" height="100%" overflow="visible" style="display: block;" viewBox="0 0 24 24" fill="none" xmlns="http://www.w3.org/2000/svg">
<g id="vuesax/linear/wallet-2">
<path id="Vector" d="M13 9H7" stroke="var(--stroke-0, #5A2BF0)" stroke-linecap="round" stroke-linejoin="round"/>
<path id="Vector_2" d="M22.0041 10.9692V13.0292C22.0041 13.5792 21.5641 14.0292 21.0041 14.0492H19.0441C17.9641 14.0492 16.9741 13.2592 16.8841 12.1792C16.8241 11.5492 17.0641 10.9592 17.4841 10.5492C17.8541 10.1692 18.3641 9.94922 18.9241 9.94922H21.0041C21.5641 9.96922 22.0041 10.4192 22.0041 10.9692Z" stroke="var(--stroke-0, #5A2BF0)" stroke-linecap="round" stroke-linejoin="round"/>
<path id="Vector_3" d="M17.48 10.55C17.06 10.96 16.82 11.55 16.88 12.18C16.97 13.26 17.96 14.05 19.04 14.05H21V15.5C21 18.5 19 20.5 16 20.5H7C4 20.5 2 18.5 2 15.5V8.5C2 5.78 3.64 3.88 6.19 3.56C6.45 3.52 6.72 3.5 7 3.5H16C16.26 3.5 16.51 3.50999 16.75 3.54999C19.33 3.84999 21 5.76 21 8.5V9.95001H18.92C18.36 9.95001 17.85 10.17 17.48 10.55Z" stroke="var(--stroke-0, #5A2BF0)" stroke-linecap="round" stroke-linejoin="round"/>
<g id="Vector_4" opacity="0">
</g>
</g>
</svg>
