<svg preserveAspectRatio="none" width="100%" height="100%" overflow="visible" style="display: block;" viewBox="0 0 30 34.8916" fill="none" xmlns="http://www.w3.org/2000/svg">
<g id="Group 1686553888">
<path id="Vector" d="M12.1691 21.4293C11.1956 21.3895 10.0927 21.4176 9.11213 21.4218L5.02171 21.4139C3.99341 21.4171 2.97132 21.4207 1.93371 21.4238C0.940299 21.4543 0.106793 20.9526 0.0439315 19.8824C-0.000939857 19.1184 0.0253528 18.3226 0.0257061 17.5476L0.0257944 12.9364L0.0214664 5.67422C0.0211719 4.38817 0.00715696 3.09944 0.0342152 1.81381C0.0659549 0.305464 1.00802 -0.0570113 2.33414 0.0211898C3.54307 -0.00357194 4.82041 0.0203358 6.03491 0.0198352L13.781 0.0198941L23.4481 0.0211898C24.8424 0.0228386 26.27 0.00190426 27.6606 0.0224261C27.7966 0.000638203 27.9727 0.0173328 28.1093 0.0074988C29.0341 -0.0724099 29.8659 0.491427 29.946 1.45484C30.0008 2.11369 29.9693 2.83298 29.9666 3.49958L29.9651 7.17488L29.9663 19.5C29.9616 20.0983 29.9133 20.5367 29.4628 20.984C28.8969 21.5461 27.9194 21.4296 27.1639 21.4252L25.0578 21.4157C22.685 21.4172 20.1716 21.4615 17.8042 21.4091C17.8484 21.9279 17.9255 22.4451 17.967 22.963C18.3941 22.9659 19.7956 22.8447 20.0702 23.0989C20.1318 23.1559 20.159 23.2228 20.1631 23.3056C20.1691 23.4268 20.1456 23.5611 20.061 23.6515C19.7618 23.7998 18.2944 23.7342 17.8617 23.7366L13.2585 23.7407L11.1465 23.7421C10.8263 23.741 9.29571 23.9032 9.9164 23.1019C9.96109 23.0443 10.1506 22.9592 10.232 22.9561C10.8083 22.9345 11.3954 22.9536 11.9741 22.9582C12.0438 22.4492 12.1088 21.9395 12.1691 21.4293Z" fill="var(--fill-0, #2C3A47)"/>
<path id="Vector_2" d="M2.33585 0.0215049C3.54478 -0.00325675 4.82212 0.0206509 6.03662 0.0201504L13.7828 0.0202093L23.4498 0.0215049C24.8441 0.0231538 26.2717 0.00221945 27.6623 0.0227413C27.317 0.160712 26.1404 0.023389 25.932 0.10795L25.9399 0.139336C26.219 0.138806 26.6454 0.125645 26.9124 0.149612C26.3606 0.180851 25.6219 0.161566 25.0595 0.163362L21.7451 0.171488L12.5226 0.161831C9.93354 0.179614 7.34434 0.169663 4.75549 0.131976C4.16383 0.127147 2.49958 0.224545 1.9742 0.0653161L2.00962 0.0476797L1.96875 0.0543338C2.11128 0.0558648 2.19858 0.0593394 2.33585 0.0215049Z" fill="var(--fill-0, #0B0F1B)"/>
<path id="Vector_3" d="M15.163 20.6378C14.0387 20.6098 12.8363 20.6301 11.7073 20.6301L5.44264 20.6315L2.90072 20.6323C2.44483 20.6317 1.95357 20.6469 1.50144 20.6023C1.28412 20.5808 1.14423 20.4697 0.989862 20.3284C0.845296 20.1961 0.822213 19.9529 0.818444 19.7528C0.802192 18.8896 0.81073 18.0114 0.811672 17.1472L0.814941 12.0995L0.818385 5.10341C0.818621 4.00494 0.820388 2.874 0.812409 1.77182C0.809199 1.32573 1.04398 0.84354 1.55396 0.818307C2.03783 0.79437 2.57399 0.811535 3.07308 0.812831L5.69173 0.814568L14.2581 0.814656L23.6405 0.815098L26.7919 0.814214C27.3381 0.814156 27.8849 0.809592 28.4307 0.818837C28.8877 0.826581 29.183 1.22227 29.1921 1.65314C29.2119 2.57571 29.2013 3.49858 29.201 4.42056L29.1995 9.94145L29.1989 16.5255C29.1983 17.5918 29.213 18.6599 29.1942 19.7254C29.1842 20.2942 28.8815 20.5902 28.3144 20.6085C27.4965 20.6348 26.6786 20.6301 25.8606 20.6311L20.5674 20.6335C19.8256 20.6335 18.6884 20.5935 17.987 20.6366C17.7067 20.6202 17.285 20.6334 16.9955 20.6332C16.3847 20.6304 15.7738 20.6319 15.163 20.6378Z" fill="var(--fill-0, white)"/>
<path id="Vector_4" d="M6.78374 3.59805C8.79789 3.40758 10.5844 4.88769 10.7718 6.9021C10.9592 8.91651 9.47635 10.7007 7.46164 10.8851C5.45126 11.069 3.67172 9.59011 3.48472 7.58C3.29773 5.56991 4.77392 3.7881 6.78374 3.59805Z" fill="var(--fill-0, #2C3A47)"/>
<path id="Vector_5" d="M4.86431 9.02488C4.62759 8.64498 4.44799 8.29437 4.3417 7.86041C3.97059 6.34497 4.99969 4.74829 6.505 4.40151C8.02303 4.05179 9.57466 5.08059 9.89933 6.58805C10.1004 7.52146 9.87068 8.24078 9.36093 9.02347C9.3049 8.89663 9.23706 8.77538 9.15836 8.66123C8.68559 7.97509 8.07185 7.83232 7.32196 7.7038C7.16671 7.7144 6.98784 7.73118 6.83421 7.72794C5.92762 7.7923 5.30561 8.25556 4.86431 9.02488Z" fill="var(--fill-0, white)"/>
<path id="Vector_6" d="M6.83627 7.72707L6.87172 7.69159C6.79941 7.58521 6.49043 7.52906 6.33291 7.38161C5.83562 6.91615 5.85028 5.92683 6.43069 5.46613C6.6572 5.28423 6.94839 5.20317 7.23632 5.24189C8.3445 5.3869 8.68763 6.95595 7.6853 7.48428C7.56431 7.54806 7.43102 7.61907 7.32403 7.70293C7.16877 7.71353 6.98991 7.73031 6.83627 7.72707Z" fill="var(--fill-0, #5F15EE)"/>
<path id="Vector_7" d="M7.10054 8.42578C7.98095 8.43553 8.45192 8.81743 8.80698 9.59344C8.30547 9.9689 7.81097 10.1214 7.19417 10.1592C6.513 10.1527 6.01576 9.98497 5.4668 9.58143C5.81944 8.81961 6.2849 8.53608 7.10054 8.42578Z" fill="var(--fill-0, white)"/>
<path id="Vector_8" d="M13.5197 5.15438C14.1742 5.12308 14.9744 5.14428 15.6432 5.14352L19.6581 5.14349L23.8376 5.14732C24.4987 5.1474 25.1606 5.13931 25.8209 5.14296C26.0497 5.15444 26.3715 5.16592 26.4254 5.44878C26.4887 5.78031 26.3806 5.92526 26.0638 5.99864C23.5516 6.02522 20.9874 6.00105 18.4708 6.00075L15.4257 6.00084C14.8551 6.00152 13.8659 6.05469 13.2835 5.9247C13.2074 5.87921 13.1062 5.75629 13.0951 5.67479C13.0532 5.36649 13.2682 5.21542 13.5197 5.15438Z" fill="var(--fill-0, #5F15EE)"/>
<path id="Vector_9" d="M15.3719 13.401C15.9828 13.3765 16.6738 13.3908 17.2895 13.3906L20.6415 13.3902L23.9125 13.3911C24.5602 13.389 25.2114 13.3831 25.859 13.3872C25.9656 13.3878 26.1222 13.3958 26.2141 13.4475C26.2939 13.4916 26.3799 13.5764 26.3967 13.671C26.4608 14.0333 26.3431 14.1769 26.0009 14.2396C23.7956 14.2682 21.542 14.2459 19.333 14.2457L16.8459 14.2487C16.3971 14.25 15.9479 14.254 15.4992 14.2488C15.2411 14.2457 15.0113 14.2086 14.9572 13.9099C14.9006 13.5979 15.093 13.4518 15.3719 13.401Z" fill="var(--fill-0, #C1C2C5)"/>
<path id="Vector_10" d="M16.8334 16.2905L23.3256 16.2944L25.1465 16.2964C25.4509 16.2967 25.7773 16.2743 26.0788 16.3064C26.1721 16.3164 26.251 16.3516 26.317 16.4197C26.3959 16.5014 26.4356 16.6108 26.4318 16.724C26.428 16.841 26.3761 16.9594 26.2887 17.0384C26.1076 17.2023 24.9377 17.1318 24.6299 17.1313L18.3621 17.1323L16.4008 17.1347C16.1334 17.1355 15.3135 17.1912 15.1267 17.0456C15.0348 16.9738 14.9768 16.8671 14.9663 16.7509C14.9566 16.6389 14.9947 16.5281 15.0713 16.4459C15.1552 16.3559 15.2875 16.3089 15.4086 16.3063C15.8825 16.296 16.3596 16.2938 16.8334 16.2905Z" fill="var(--fill-0, #C1C2C5)"/>
<path id="Vector_11" d="M13.5295 8.04676L19.6121 8.05215C20.5377 8.05139 21.7696 8.00869 22.6685 8.06593C23.0752 8.3205 23.0513 8.72917 22.5984 8.88457C22.3132 8.89532 22.016 8.89467 21.73 8.89499C19.0147 8.89785 16.2989 8.89573 13.5836 8.89169C13.0181 8.89084 12.8595 8.15302 13.5295 8.04676Z" fill="var(--fill-0, #5F15EE)"/>
<path id="Vector_12" d="M8.18665 13.3762L10.9759 13.3774C11.554 13.3754 12.1258 13.3617 12.7038 13.3916C13.2795 13.4214 13.2536 14.2091 12.7202 14.2378C12.2659 14.2622 11.8056 14.2522 11.3495 14.2522L8.55589 14.2512L5.50826 14.253C5.1056 14.2538 4.70432 14.2542 4.30006 14.2541C3.98891 14.254 3.61286 14.2759 3.58704 13.8556C3.56984 13.5753 3.7561 13.4117 4.02494 13.3957C4.49963 13.3675 4.98144 13.3817 5.458 13.3819L8.18665 13.3762Z" fill="var(--fill-0, #5F15EE)"/>
<path id="Vector_13" d="M4.04085 16.2885C4.9947 16.3005 12.6509 16.232 12.8807 16.3278C12.9879 16.3726 13.0719 16.4666 13.1094 16.5759C13.1471 16.6858 13.1363 16.805 13.084 16.9082C13.0193 17.0361 12.9132 17.0927 12.7833 17.132C11.1942 17.1779 9.50156 17.1139 7.89997 17.1382C6.66898 17.1274 5.43743 17.1492 4.20656 17.1364C3.9663 17.1338 3.66666 17.1233 3.61684 16.8215C3.55728 16.4607 3.69714 16.3328 4.04085 16.2885Z" fill="var(--fill-0, #5F15EE)"/>
<path id="Vector_14" d="M14.3078 21.4141C15.2056 21.4026 16.2054 21.3834 17.0987 21.4186C17.1215 21.8346 17.2231 22.516 17.278 22.948C16.7698 22.9644 16.2154 22.9564 15.7037 22.9589C14.7742 22.9595 13.6518 22.9874 12.7383 22.9437C12.779 22.4441 12.8498 21.9144 12.9092 21.414C13.3754 21.421 13.8416 21.421 14.3078 21.4141Z" fill="var(--fill-0, #5F15EE)"/>
<path id="Vector_15" d="M15.1658 20.6374C15.7766 20.6315 16.3875 20.63 16.9983 20.6328C17.2878 20.633 17.7095 20.6198 17.9897 20.6361C18.1529 20.6657 18.3406 20.6379 18.4871 20.6903C18.3657 20.7042 18.1296 20.6939 17.9886 20.6983L17.9867 20.7456C17.9425 20.7634 15.1466 20.7987 14.9024 20.7673C14.1695 20.6731 13.1686 20.7053 12.3984 20.6861C12.6466 20.5988 14.6723 20.6736 15.1658 20.6374Z" fill="var(--fill-0, #0B0F1B)"/>
<path id="Vector_16" d="M21.0748 24.4587C21.8145 23.9243 22.2295 23.9357 22.9981 24.4189C23.7556 24.1501 24.0522 24.2464 24.6676 24.7787C26.1964 24.6674 26.512 25.7833 27.1236 26.9057C27.395 27.4042 27.6956 27.8956 27.8464 28.4479C28.0198 29.1425 28.0737 29.8806 28.2138 30.5858C28.467 30.5999 28.7603 30.5928 28.9496 30.8034C29.3374 31.2344 29.5532 31.8674 29.8709 32.3303C30.1868 32.7902 29.8718 33.2065 29.4761 33.0514C28.1402 33.5881 26.5079 34.2002 25.1454 34.6489C24.961 34.8112 24.6924 35.0508 24.4863 34.742C24.2117 34.3307 24.0132 33.8322 23.8338 33.372C23.8005 33.2848 23.8728 33.0834 23.8103 33.0307C23.3566 32.6492 22.5344 32.5711 21.9859 32.3798C21.6795 32.2726 21.3283 32.1439 21.0909 31.9887C20.448 31.5686 19.9667 30.8605 19.4412 30.2958C19.2358 30.0749 18.6761 29.4749 18.5209 29.2508C17.3114 29.2603 16.1018 29.2617 14.8922 29.2555C13.7786 29.2561 12.621 29.2735 11.5096 29.2532C11.1827 29.6651 10.8013 30.0699 10.4598 30.4695C9.73881 31.313 9.21334 32.0412 8.10616 32.3909C7.44165 32.6012 6.83957 32.6559 6.22421 33.0066C6.24591 33.5263 5.97998 33.8905 5.76746 34.3498C5.58879 34.7358 5.32813 35.1053 4.91508 34.6922C3.76208 34.2194 2.53189 33.8089 1.36311 33.3679C1.11444 33.2739 0.813732 33.1509 0.560433 33.0814C0.00672457 33.1338 -0.145997 32.8082 0.1439 32.3506C0.453407 31.8621 0.68324 31.2677 1.04159 30.8057C1.18769 30.6173 1.56147 30.5908 1.77049 30.582C1.97892 29.7808 2.00939 28.8801 2.31177 28.109C2.56277 27.5122 2.88709 26.9531 3.20072 26.3854C3.58469 25.6903 4.03523 24.8597 4.91988 24.7731C5.32598 24.7334 5.37109 24.7978 5.71611 24.5658C6.1284 24.292 6.46997 24.1819 6.94671 24.3594C7.38115 24.5028 7.7884 23.5442 9.01036 24.474C9.86756 24.1204 10.4275 24.3942 11.0179 25.0163C13.6929 24.9992 16.3679 24.9963 19.0428 25.0078C19.5911 24.3038 20.2462 24.1787 21.0748 24.4587Z" fill="var(--fill-0, #2C3A47)"/>
<path id="Vector_17" d="M1.61262 31.2715C2.91607 31.396 4.73404 31.9519 5.48074 33.1185C5.3673 33.6799 5.03088 34.1204 4.91128 34.691C3.75829 34.2182 2.5281 33.8077 1.35932 33.3667C1.11064 33.2727 0.80994 33.1497 0.556641 33.0802C0.877895 32.5779 1.26787 31.6313 1.61262 31.2715Z" fill="var(--fill-0, #5F15EE)"/>
<path id="Vector_18" d="M24.5449 33.1697C25.1595 32.0293 27.2271 31.3339 28.4307 31.2744C28.6645 31.5524 29.2313 32.6671 29.4715 33.0507C28.1357 33.5875 26.5034 34.1996 25.1409 34.6483C25.0513 34.2317 24.7032 33.6146 24.5449 33.1697Z" fill="var(--fill-0, #5F15EE)"/>
<path id="Vector_19" d="M5.71289 24.5651C6.12518 24.2913 6.46675 24.1812 6.9435 24.3587C6.76457 24.4812 6.57876 24.3572 6.37692 24.4091C6.18687 24.4579 5.97968 24.5695 5.78897 24.6104L5.71289 24.5651Z" fill="var(--fill-0, #0B0F1B)"/>
<path id="Vector_20" d="M21.8891 24.7611C22.8286 24.7099 22.9142 25.5087 23.4188 26.1073C23.5692 26.2857 23.8286 26.2557 23.9598 26.0805C24.2252 25.7257 23.5272 25.2664 23.5084 24.9979L23.5534 24.9631C24.2828 24.9446 24.4598 26.0113 24.9552 26.2727C25.0118 26.2937 25.1318 26.3037 25.1814 26.2633C25.4665 26.031 25.2404 25.7018 25.1116 25.4949C25.3276 25.6117 25.5644 25.7354 25.7178 25.9542C26.1745 26.6049 26.9892 28.0697 27.1729 28.7916C27.3287 29.4037 27.256 30.0285 27.5236 30.7048C26.186 30.9354 25.1797 31.4156 24.2192 32.3578C23.2322 31.7942 22.7193 31.917 21.7773 31.4821L21.7557 31.4712C21.0247 31.0949 20.5492 30.4145 20.016 29.8156C19.6843 29.4438 19.3339 29.0834 19.015 28.7009C18.8692 28.526 18.7615 28.3161 18.888 28.0979C18.9338 28.0187 19.0703 27.9183 19.1605 27.9174C19.8957 27.9089 20.5118 28.7218 21.0993 29.0849C21.2752 29.1953 21.4518 29.3281 21.6534 29.2807C21.7499 29.2583 21.8355 29.2118 21.8831 29.1299C21.9516 29.0121 21.9219 28.761 21.8692 28.6311C21.5429 27.8288 21.153 26.6302 20.442 26.1067C20.2296 25.9503 19.8734 25.872 19.6343 25.7675C19.5815 25.7472 19.5498 25.6995 19.5423 25.6421C19.5044 25.3488 20.0317 25.0565 20.2538 25.04C20.8463 24.9964 21.335 25.5081 21.6703 25.9344C21.9454 26.2845 22.2406 26.9785 22.6358 26.2878C22.6877 25.9224 21.8295 25.1822 21.6552 24.8945C21.7119 24.8141 21.793 24.7976 21.8891 24.7611Z" fill="var(--fill-0, white)"/>
<path id="Vector_21" d="M7.75293 24.7597C8.05979 24.7285 8.15086 24.7559 8.40598 24.9273C8.10293 25.2279 7.53458 25.7252 7.42561 26.1509C7.40845 26.2181 7.40468 26.3037 7.44723 26.3629C7.51333 26.4548 7.647 26.5575 7.7615 26.5631C7.83911 26.567 7.90006 26.5343 7.95624 26.4836C8.06123 26.3885 8.14326 26.2357 8.22482 26.1191C8.40678 25.8594 8.60152 25.6112 8.84578 25.4066C9.11141 25.184 9.4337 25.0076 9.79061 25.0439C10.0184 25.0671 10.2523 25.174 10.396 25.3563C10.4538 25.4296 10.4995 25.5235 10.4826 25.6189C10.4429 25.8432 9.74818 25.9769 9.55227 26.1285C9.03062 26.5322 8.13175 28.2508 8.06951 28.8526C8.05679 28.9754 8.07363 29.1106 8.15837 29.2062C8.61977 29.7262 10.0434 27.8733 10.8237 27.9299C10.9419 27.9384 11.0504 27.9899 11.1271 28.0809C11.1886 28.1539 11.2358 28.2387 11.2229 28.3368C11.21 28.4342 11.1484 28.5323 11.0891 28.6085C10.7326 29.067 10.2991 29.4827 9.90991 29.9149C9.60135 30.2577 9.32735 30.6286 9.00294 30.9578C8.87286 31.0897 8.73004 31.2001 8.58129 31.3094C7.69832 31.9082 6.89555 31.6792 5.87617 32.3829C4.97 31.3859 3.81256 30.9357 2.50781 30.6793C2.70912 30.0728 2.73452 29.0646 2.94828 28.5293C3.25699 27.7559 3.91346 26.4654 4.42668 25.7855C4.52184 25.6595 4.81427 25.52 4.9584 25.4493C4.6917 25.8859 4.55585 26.0187 5.0868 26.2893C5.48119 26.0217 6.01844 24.8613 6.46839 24.9979C6.51052 25.2476 5.89648 25.7319 6.03534 26.0652C6.08657 26.1883 6.2834 26.2328 6.39546 26.2272C6.47872 26.2231 6.73123 25.8512 6.77053 25.792C7.03234 25.3978 7.32663 24.9864 7.75293 24.7597Z" fill="var(--fill-0, white)"/>
<path id="Vector_22" d="M11.1945 25.7651C12.7409 25.7822 14.2874 25.7831 15.8338 25.7678C16.8407 25.7675 17.8498 25.7937 18.8559 25.7807C19.0676 26.5445 19.3311 26.4765 19.9822 26.5869C20.0816 26.6805 20.1521 26.7435 20.2358 26.8522C20.21 26.9155 20.1899 26.9914 20.1357 27.0259C20.1961 27.1248 20.2058 27.103 20.1879 27.1861C20.0114 27.2553 19.9717 27.1961 19.8944 27.3327C19.2813 27.1275 18.9491 27.0718 18.4349 27.5267C18.3827 27.5727 18.2784 27.6996 18.2407 27.7278C18.0891 28.027 18.0741 28.1321 18.0776 28.4671C17.0196 28.4445 15.9765 28.4577 14.919 28.4586C13.9205 28.4498 12.922 28.4554 11.9237 28.4748C11.9318 28.1112 11.9234 27.9881 11.7464 27.6769C10.7592 26.6355 10.029 27.4481 9.11719 28.0278C9.25115 27.6254 9.56552 27.1637 9.83398 26.8378C10.2345 26.2412 10.7931 26.934 11.1945 25.7651Z" fill="var(--fill-0, white)"/>
<path id="Vector_23" d="M11.748 27.6774C11.8016 27.6565 15.1832 27.7112 15.6561 27.6842C16.0879 27.6965 16.5484 27.7118 16.9774 27.668C17.1446 27.6721 18.1433 27.6618 18.2244 27.698L18.2424 27.7283C18.0907 28.0275 18.0757 28.1326 18.0792 28.4676C17.0213 28.445 15.9782 28.4582 14.9206 28.4591C13.9222 28.4503 12.9236 28.4559 11.9253 28.4753C11.9335 28.1117 11.925 27.9886 11.748 27.6774Z" fill="var(--fill-0, white)"/>
<path id="Vector_24" d="M9.11719 28.0275C9.25115 27.625 9.56552 27.1633 9.83398 26.8374C9.84917 26.8512 9.86837 26.8686 9.89157 26.8895C10.5955 26.9681 11.3626 26.9943 12.0716 26.9929C12.0887 26.9917 12.1059 26.9905 12.1231 26.9893C12.3111 26.9943 12.5005 27.0017 12.6883 26.997C12.9282 27.0391 13.294 27.0217 13.5517 27.0238C13.4755 27.0388 13.4429 27.0459 13.3658 27.0485L13.3521 27.0732C13.431 27.0741 13.6412 27.0738 13.6846 27.1451C13.7601 27.2687 13.8339 27.4693 13.7949 27.6129C13.6849 27.6842 13.5683 27.6103 13.5168 27.6577C13.8035 27.6595 15.5723 27.633 15.6544 27.6833C15.1816 27.7104 11.8 27.6556 11.7464 27.6765C10.7592 26.6351 10.029 27.4478 9.11719 28.0275Z" fill="var(--fill-0, #B9B9BB)"/>
<path id="Vector_25" d="M13.5531 27.0241C14.0279 27.0065 16.6396 26.9535 16.9588 27.0444C16.9473 27.2514 16.9883 27.4481 16.9772 27.6675C16.5482 27.7113 16.0877 27.696 15.6559 27.6836C15.5737 27.6333 13.8049 27.6598 13.5182 27.658C13.5697 27.6106 13.6863 27.6845 13.7963 27.6133C13.8353 27.4696 13.7615 27.2691 13.686 27.1454C13.6426 27.0742 13.4324 27.0745 13.3535 27.0736L13.3673 27.0488C13.4443 27.0462 13.4769 27.0391 13.5531 27.0241Z" fill="var(--fill-0, #A2A5A8)"/>
<path id="Vector_26" d="M17.0361 26.5031C17.2778 26.4722 17.4705 26.4463 17.7151 26.4966C17.7456 26.6851 17.7596 26.7961 17.7668 26.9863C17.981 26.9998 18.2287 27.0196 18.4412 27.0095C18.9643 26.9854 19.6157 26.9056 20.1374 27.0254C20.1978 27.1244 20.2075 27.1026 20.1897 27.1856C20.0131 27.2548 19.9734 27.1956 19.8961 27.3322C19.283 27.127 18.9508 27.0714 18.4366 27.5263C18.3845 27.5722 18.2801 27.6991 18.2425 27.7274L18.2244 27.697C18.1434 27.6608 17.1447 27.6711 16.9775 27.667C16.9886 27.4477 16.9476 27.251 16.9591 27.044C17.0349 26.9459 17.025 26.6542 17.0361 26.5031Z" fill="var(--fill-0, #CFCED0)"/>
<path id="Vector_27" d="M12.123 26.9896C12.2214 26.9787 12.2834 26.9723 12.3813 26.9481C12.4378 26.8103 12.27 26.7135 12.4056 26.5247C12.5222 26.4803 12.4803 26.4797 12.584 26.5009C12.6813 26.5919 12.681 26.6937 12.6849 26.8221C12.6865 26.8804 12.6877 26.939 12.6883 26.9973C12.5005 27.002 12.311 26.9946 12.123 26.9896Z" fill="var(--fill-0, #C1C2C5)"/>
<path id="Vector_28" d="M20.234 26.8521C20.5061 27.2401 20.712 27.5808 20.8816 28.0289C20.5772 27.801 20.2185 27.5157 19.8926 27.3326C19.9699 27.1959 20.0096 27.2551 20.1861 27.1859C20.204 27.1029 20.1943 27.1247 20.1339 27.0258C20.1881 26.9913 20.2082 26.9154 20.234 26.8521Z" fill="var(--fill-0, #C1C2C5)"/>
</g>
</svg>
