<svg preserveAspectRatio="none" width="100%" height="100%" overflow="visible" style="display: block;" viewBox="0 0 16 16" fill="none" xmlns="http://www.w3.org/2000/svg">
<g id="SVG">
<path id="Vector" d="M9.33333 11.3333H3.33333" stroke="var(--stroke-0, #5F15EE)" stroke-width="1.33333" stroke-linecap="round" stroke-linejoin="round"/>
<path id="Vector_2" d="M12.6667 4.66667H6.66667" stroke="var(--stroke-0, #5F15EE)" stroke-width="1.33333" stroke-linecap="round" stroke-linejoin="round"/>
<path id="Vector_3" d="M11.3333 13.3333C12.4379 13.3333 13.3333 12.4379 13.3333 11.3333C13.3333 10.2288 12.4379 9.33333 11.3333 9.33333C10.2288 9.33333 9.33333 10.2288 9.33333 11.3333C9.33333 12.4379 10.2288 13.3333 11.3333 13.3333Z" stroke="var(--stroke-0, #5F15EE)" stroke-width="1.33333" stroke-linecap="round" stroke-linejoin="round"/>
<path id="Vector_4" d="M4.66667 6.66667C5.77124 6.66667 6.66667 5.77124 6.66667 4.66667C6.66667 3.5621 5.77124 2.66667 4.66667 2.66667C3.5621 2.66667 2.66667 3.5621 2.66667 4.66667C2.66667 5.77124 3.5621 6.66667 4.66667 6.66667Z" stroke="var(--stroke-0, #5F15EE)" stroke-width="1.33333" stroke-linecap="round" stroke-linejoin="round"/>
</g>
</svg>
