<svg preserveAspectRatio="none" width="100%" height="100%" overflow="visible" style="display: block;" viewBox="0 0 16 16" fill="none" xmlns="http://www.w3.org/2000/svg">
<g id="ic:round-call-made">
<path id="Vector" d="M6.0008 3.9987C6.0008 4.37203 6.3008 4.66536 6.66747 4.66536H10.3941L3.13413 11.9254C3.00948 12.05 2.93945 12.2191 2.93945 12.3954C2.93945 12.5716 3.00948 12.7407 3.13413 12.8654C3.25879 12.99 3.42785 13.06 3.60413 13.06C3.78042 13.06 3.94948 12.99 4.07413 12.8654L11.3341 5.60536V9.33203C11.3341 9.6987 11.6341 9.9987 12.0008 9.9987C12.3675 9.9987 12.6675 9.6987 12.6675 9.33203V3.9987C12.6675 3.63203 12.3675 3.33203 12.0008 3.33203H6.66747C6.3008 3.33203 6.0008 3.63203 6.0008 3.9987Z" fill="var(--fill-0, #0F1117)"/>
</g>
</svg>
