<svg preserveAspectRatio="none" width="100%" height="100%" overflow="visible" style="display: block;" viewBox="0 0 26 25.2217" fill="none" xmlns="http://www.w3.org/2000/svg">
<g id="Group 1686553870">
<path id="Vector" d="M9.46861 8.04423C9.56032 6.6548 9.25023 5.62667 10.2581 4.35236C10.8366 3.62197 11.6845 3.15473 12.611 3.05575C14.6878 2.82629 16.3347 4.23181 16.5513 6.28791C16.6239 6.63958 16.5924 7.80672 16.5883 8.19842C17.016 8.1929 17.4496 8.17381 17.8764 8.20181C19.8434 8.33088 19.889 10.0778 20.1195 11.5673L20.5408 14.2002L21.0973 17.4954C21.3047 18.7675 21.677 20.0292 20.665 21.0637C19.9795 21.7645 19.249 21.793 18.3207 21.8003L10.626 21.8015L8.36198 21.8006C7.26628 21.7992 6.2839 21.913 5.44401 21.0925C4.41059 20.083 4.75046 18.8185 4.96056 17.5691L5.40078 14.9756C5.59418 13.7285 5.79654 12.4827 6.00778 11.2386C6.08261 10.7958 6.17353 10.0474 6.29231 9.63289C6.38623 9.31562 6.55995 9.02774 6.7969 8.79674C7.62985 7.96896 8.42837 8.28686 9.40538 8.18828C9.47311 8.117 9.45346 8.15061 9.46861 8.04423Z" fill="var(--fill-0, #E3D8FC)"/>
<path id="Vector_2" d="M9.46875 8.04423C9.56046 6.6548 9.25037 5.62667 10.2582 4.35236C10.8368 3.62197 11.6846 3.15473 12.6111 3.05575C14.6879 2.82629 16.3348 4.23181 16.5514 6.28791C16.5545 6.8821 16.5723 7.6068 16.5528 8.19483C15.9702 8.20024 15.3483 8.21594 14.7694 8.19866C13.7082 8.15479 12.3449 8.19535 11.2596 8.19546C11.2492 7.61379 11.2737 7.01732 11.2503 6.44175C11.1894 6.85744 11.214 7.75236 11.2191 8.19653C10.9166 8.2013 9.70239 8.24584 9.5037 8.16051L9.46875 8.04423Z" fill="var(--fill-0, #B99FFC)"/>
<path id="Vector_3" d="M11.25 6.4408C11.3248 5.91463 11.5314 5.45618 11.9656 5.12684C12.3454 4.84062 12.8233 4.71695 13.2942 4.78303C13.7515 4.84314 14.1639 5.08878 14.4345 5.46226C14.92 6.12133 14.7775 7.35316 14.7691 8.19771C13.7079 8.15384 12.3446 8.19439 11.2593 8.19451C11.2489 7.61283 11.2734 7.01637 11.25 6.4408Z" fill="var(--fill-0, white)"/>
<path id="Vector_4" d="M12.9398 10.168C13.8142 10.1741 13.8698 10.8674 13.8197 11.5517C14.5517 11.5418 14.9577 11.4098 15.479 12.0089C15.4939 12.2003 15.4831 12.4122 15.4782 12.6056C15.4497 12.6541 15.4208 12.6854 15.3859 12.7519C14.8796 13.7176 11.9371 12.4076 12.0082 13.7557C12.1293 14.2721 13.3218 14.3769 13.7131 14.4566C15.259 14.7713 16.1949 16.2509 15.4403 17.7142C15.0865 18.4002 14.5347 18.6375 13.8158 18.838C13.8673 19.3098 13.8717 19.4708 13.609 19.881C13.4121 20.0139 13.3262 20.0424 13.1088 20.1231C12.2704 20.0534 12.1805 19.5119 12.2069 18.7977C11.7196 18.8138 9.86816 18.9764 10.5907 17.5471C10.8865 16.962 12.9701 17.3232 13.5694 17.1932C13.884 17.1249 14.114 16.9683 14.0549 16.5459C13.9334 15.9449 12.6667 15.9052 12.1331 15.7831C9.7927 15.2476 9.84434 11.8646 12.2084 11.524C12.1832 10.8306 12.2186 10.4094 12.9398 10.168Z" fill="var(--fill-0, #B99FFC)"/>
<path id="Vector_5" d="M1.88192 0.0404615C2.47006 -0.0282936 4.65374 -0.0254933 5.19538 0.176946C5.462 0.452834 5.48223 0.5821 5.57473 0.944218C5.14244 2.54768 2.9594 1.29726 1.93079 1.95243C1.68354 2.1099 1.76318 3.30177 1.76713 3.62472C1.76456 4.43187 1.99706 5.10108 1.18991 5.54529C0.269388 5.57996 -0.0699697 5.16684 0.014485 4.23811C0.0874214 3.43624 -0.0916259 2.33352 0.0700649 1.57051C0.134639 1.25458 0.274398 0.958853 0.477507 0.708407C0.871735 0.223493 1.30229 0.101564 1.88192 0.0404615Z" fill="var(--fill-0, #9067FE)"/>
<path id="Vector_6" d="M21.2588 0.0362061C21.9605 -0.0131019 24.3168 -0.0543627 24.9203 0.213478C25.3476 0.405898 25.6804 0.760876 25.8451 1.19964C25.9144 1.38117 25.9509 1.56874 25.9691 1.76159C26.0144 2.24319 26.0266 4.80413 25.8881 5.10487C25.7776 5.34498 25.5734 5.46198 25.3356 5.55129C23.3657 5.58868 24.6745 2.90479 24.1443 2.03795C23.6598 1.24579 21.2754 2.45265 20.528 1.21226C20.517 0.993847 20.5282 0.786122 20.5367 0.568062C20.7526 0.252806 20.8897 0.123974 21.2588 0.0362061Z" fill="var(--fill-0, #9067FE)"/>
<path id="Vector_7" d="M0.652102 19.7536C2.31003 19.6181 1.64233 21.3487 1.75278 22.4098C1.80544 22.9161 1.68623 23.0893 2.15063 23.4107C3.01297 23.47 4.25999 23.2932 5.03988 23.5315C5.3437 23.6244 5.47983 23.9964 5.57821 24.2761C5.45352 24.7982 5.36323 24.9673 4.85385 25.1585C4.44665 25.2851 1.97352 25.1988 1.4376 25.098C0.782354 24.9748 0.0403272 24.1724 0.0374082 23.4568C0.0334241 22.4785 -0.0481511 21.283 0.078038 20.3037C0.109319 20.061 0.452621 19.852 0.652102 19.7536Z" fill="var(--fill-0, #9067FE)"/>
<path id="Vector_8" d="M24.8704 19.7597C24.9079 19.7556 24.9455 19.7529 24.9832 19.7515C25.6932 19.7224 26.0581 20.1235 25.987 20.7978C25.9019 21.6045 26.1049 23.1063 25.9097 23.844C25.833 24.134 25.6798 24.3982 25.4663 24.6089C24.7732 25.3032 23.9069 25.2055 23.015 25.2007L21.5976 25.1984C21.5661 25.1995 21.5345 25.1995 21.503 25.1986C20.6821 25.1791 20.5103 24.7108 20.5332 24.001L20.5426 23.9868C20.9001 23.4607 21.1832 23.4158 21.8132 23.4169C22.504 23.4182 23.1958 23.4363 23.8865 23.4155C23.9553 23.3671 24.1228 23.2502 24.1488 23.1763C24.4374 22.356 24.0659 21.1598 24.3091 20.3146C24.3962 20.0118 24.6134 19.8832 24.8704 19.7597Z" fill="var(--fill-0, #9067FE)"/>
</g>
</svg>
