<svg preserveAspectRatio="none" width="100%" height="100%" overflow="visible" style="display: block;" viewBox="0 0 22.9213 24.6219" fill="none" xmlns="http://www.w3.org/2000/svg">
<g id="Group 1410122937">
<path id="Vector" d="M4.9016 13.9637V12.3687H8.85622L13.2521 7.97287H4.90682V4.5899H16.6591L21.2552 0H3.10424C2.3697 0 1.66524 0.291796 1.14584 0.811195C0.626443 1.33059 0.334643 2.03505 0.334643 2.76959V20.8914L4.90264 16.3015L4.9016 13.9637Z" fill="url(#paint0_linear_0_10)"/>
<path id="Vector_2" d="M20.1424 7.971H16.6342L12.2383 12.3669H18.344V15.6737H8.94301L0 24.6219H5.84169L10.0769 20.0696H20.1518C20.8864 20.0693 21.5909 19.7773 22.1102 19.2577C22.6296 18.7381 22.9213 18.0336 22.9213 17.2989V10.7427C22.9215 10.378 22.8497 10.017 22.71 9.68015C22.5703 9.34334 22.3654 9.03741 22.1073 8.77991C21.8491 8.52241 21.5426 8.31842 21.2055 8.1796C20.8683 8.04079 20.507 7.9699 20.1424 7.971Z" fill="url(#paint1_linear_0_10)"/>
</g>
<defs>
<linearGradient id="paint0_linear_0_10" x1="0.336729" y1="10.4431" x2="21.2552" y2="10.4431" gradientUnits="userSpaceOnUse">
<stop stop-color="#9C6CFE"/>
<stop offset="0.98" stop-color="#5000EA"/>
</linearGradient>
<linearGradient id="paint1_linear_0_10" x1="-0.0052158" y1="16.2965" x2="22.912" y2="16.2965" gradientUnits="userSpaceOnUse">
<stop stop-color="#9C6CFE"/>
<stop offset="0.98" stop-color="#5000EA"/>
</linearGradient>
</defs>
</svg>
