<svg preserveAspectRatio="none" width="100%" height="100%" overflow="visible" style="display: block;" viewBox="0 0 30 38.9672" fill="none" xmlns="http://www.w3.org/2000/svg">
<g id="Group 1686553889">
<path id="Vector" d="M9.23807 2.43061C9.42768 0.935958 10.6897 -0.169214 12.2179 0.0214391C12.8979 0.104605 13.5167 0.454901 13.938 0.995005C14.2569 1.40729 14.4485 1.90378 14.4891 2.42345L16.3351 2.39754C17.5824 2.38122 18.2689 2.25833 18.2698 3.75616L18.269 3.94671L20.7796 3.93766C21.5875 3.93509 22.5839 3.81146 23.2084 4.41328C23.7013 4.88846 23.7455 5.40387 23.7472 6.04217L23.7461 23.3139C24.3551 23.5722 24.9219 23.9509 25.5082 24.2573C26.5164 24.7839 27.632 25.1965 28.732 25.4781C29.0262 25.5535 29.766 25.6215 29.8984 25.9235C30.0433 26.2543 29.9991 29.8675 29.9707 30.4891C29.9548 30.9272 29.9116 31.3636 29.8417 31.796C29.713 32.5459 29.4846 33.2756 29.162 33.9647C28.1223 36.2063 26.1454 37.9014 23.8674 38.8546C23.3371 39.0766 22.9674 38.9401 22.4804 38.7077C20.094 37.6058 18.1355 35.755 17.2306 33.2441C17.0314 32.6885 16.8933 32.1129 16.8187 31.5275C16.698 30.5252 16.7661 29.4889 16.7532 28.4816C16.7461 27.9265 16.7456 27.3709 16.7392 26.8157C16.7359 26.5242 16.7206 26.2375 16.8451 25.965C16.9316 25.7756 17.0973 25.7204 17.2837 25.6568C17.6229 25.5614 17.9894 25.4928 18.3357 25.4146C18.5187 25.3574 18.7012 25.2987 18.8833 25.2386C19.6689 25.0104 20.8264 24.4651 21.5508 24.089C21.7526 23.9728 21.9584 23.8638 22.168 23.7621C22.3447 23.6203 22.6594 23.4647 22.8597 23.3325L22.8572 11.0225L22.8591 7.44518C22.8596 6.85059 22.8722 6.24167 22.8425 5.64941C22.7902 4.60849 21.416 4.82843 20.6691 4.82826L18.2742 4.83488C18.2973 6.18712 18.4329 6.87795 16.7873 6.87214L9.54982 6.8613L7.57259 6.86819C7.01131 6.87183 6.18026 6.98158 5.76504 6.56883C5.33442 6.14074 5.46548 5.39661 5.46707 4.83353L2.95818 4.82742C2.54397 4.82603 1.95962 4.79533 1.5648 4.86951C0.678318 5.03607 0.877247 6.3322 0.876537 6.99493L0.876031 9.27726L0.879983 16.6081L0.88907 26.5353L0.884036 32.3956C0.88559 33.4181 0.886705 34.4437 0.893596 35.4665C0.895218 35.706 0.957913 35.9269 1.13749 36.0918C1.2645 36.2083 1.48194 36.3242 1.65705 36.3326C2.28384 36.3627 2.9394 36.3492 3.56682 36.3475L6.97834 36.3455C10.5059 36.3647 14.0335 36.3603 17.561 36.3323C18.5898 36.3181 18.6601 37.2102 17.9583 37.2379C17.0923 37.272 16.0756 37.2562 15.2009 37.2555L10.4143 37.2565L4.61829 37.2552C3.66627 37.2548 2.70277 37.2622 1.75089 37.2535C1.26382 37.2487 0.762565 37.0069 0.435712 36.6377C0.20351 36.3732 0.0638985 36.0401 0.0381245 35.6888C-0.000249239 35.1672 0.0233289 34.4339 0.0255922 33.9008L0.0284972 31.0008L0.027889 21.1024L0.0273148 10.8084L0.0231939 7.4769C0.0216062 6.14446 -0.29339 4.32515 1.44792 4.001C1.93942 3.90952 2.50763 3.93864 3.01108 3.93638C3.83047 3.92854 4.64994 3.93171 5.46923 3.9459C5.44673 2.96048 5.5654 2.40865 6.70922 2.39838C7.55229 2.38953 8.39547 2.40028 9.23807 2.43061Z" fill="var(--fill-0, #2A3947)"/>
<path id="Vector_2" d="M18.8789 25.239C19.6645 25.0109 20.8221 24.4656 21.5464 24.0894L21.6054 24.2181C20.6038 24.7641 20.041 24.9958 18.9766 25.3895L18.8789 25.239Z" fill="var(--fill-0, #020303)"/>
<path id="Vector_3" d="M21.5508 24.0895C21.7526 23.9733 21.9585 23.8643 22.168 23.7627C22.057 23.9806 21.8308 24.1149 21.6098 24.2183L21.5508 24.0895Z" fill="var(--fill-0, #13181E)"/>
<path id="Vector_4" d="M18.334 25.4153C18.517 25.3581 18.6995 25.2994 18.8815 25.2393L18.9792 25.3897C18.7737 25.4388 18.5185 25.5402 18.334 25.4153Z" fill="var(--fill-0, #13181E)"/>
<path id="Vector_5" d="M23.3496 24.0498C23.7673 24.2481 24.2852 24.5692 24.7106 24.7954C25.8774 25.4162 27.7933 26.2708 29.1029 26.422L29.1121 29.1649C29.1134 30.7593 29.1188 31.7646 28.4946 33.2877C27.532 35.6348 25.6529 37.1545 23.3763 38.1328C23.25 38.0993 22.9145 37.9416 22.7754 37.8781C21.7618 37.4153 20.824 36.816 20.0263 36.035C18.7489 34.7849 17.8463 33.0634 17.6466 31.2795C17.5733 30.6252 17.5839 29.9098 17.5801 29.2453L17.5723 26.4691C19.8038 26.0018 21.3683 25.1708 23.3496 24.0498Z" fill="var(--fill-0, #5F15EE)"/>
<path id="Vector_6" d="M25.9258 28.5791C26.838 28.648 26.5615 29.2751 26.1097 29.7409C25.904 29.953 25.674 30.2452 25.4746 30.4756L23.4984 32.751C23.3304 32.9426 22.8364 33.4824 22.637 33.405C22.2345 33.2489 21.2844 32.1264 21.0232 31.8417C20.8318 31.6204 20.0195 30.9911 20.6962 30.5729C21.1978 30.2628 22.2862 31.692 22.6857 32.0981C23.2374 31.5363 25.5299 28.7787 25.9258 28.5791Z" fill="var(--fill-0, white)"/>
<path id="Vector_7" d="M11.6306 0.918068C11.8189 0.902293 12.0085 0.908813 12.1954 0.937559C12.9729 1.06153 13.4812 1.58424 13.6479 2.35955C13.6956 2.58165 13.6882 3.00667 13.8132 3.17861C14.1385 3.38669 16.8548 3.30569 17.3911 3.2861L17.3876 5.94807C16.9027 5.99871 15.8991 5.97469 15.3806 5.97233C14.3033 5.96571 13.226 5.96554 12.1488 5.97185C10.2828 5.97648 8.19256 6.02489 6.33977 5.95196C6.32994 5.18715 6.26515 4.038 6.34119 3.3064C7.30337 3.28096 8.75512 3.34494 9.67106 3.27586C10.2736 3.23039 9.69386 1.2763 11.6306 0.918068Z" fill="var(--fill-0, #5F15EE)"/>
<path id="Vector_8" d="M11.7715 2.10729C12.1203 2.05692 12.4446 2.29683 12.4985 2.6451C12.5523 2.99337 12.3157 3.32005 11.968 3.37744C11.74 3.41507 11.5093 3.32735 11.3638 3.14767C11.2184 2.96803 11.1807 2.72411 11.265 2.5089C11.3493 2.29369 11.5427 2.14033 11.7715 2.10729Z" fill="var(--fill-0, white)"/>
<path id="Vector_9" d="M3.97607 33.1275C3.80157 33.0059 3.59845 32.8856 3.59997 32.6397C3.60997 31.0189 3.55183 29.3827 3.61834 27.7653C3.63115 27.4537 3.81825 27.3116 4.10886 27.2626C5.53332 27.2387 6.97554 27.2265 8.39818 27.2756C8.55468 27.281 8.69426 27.4803 8.77387 27.5953C8.84505 27.5149 9.01033 27.3068 9.09884 27.2784C9.39731 27.1826 9.69197 27.4011 9.73025 27.6949C9.7769 28.0529 8.99057 28.5552 8.96466 28.795C9.06262 28.8263 9.0858 28.8365 9.17447 28.8885C9.28564 29.0308 9.23801 30.4501 9.24291 30.7278C9.25385 31.3496 9.24324 32.0337 9.23608 32.6617C9.23372 32.867 9.0984 32.969 8.95662 33.0883C8.64403 33.1589 7.45961 33.1376 7.04841 33.1346C6.03542 33.1265 4.98497 33.1504 3.97607 33.1275Z" fill="var(--fill-0, white)"/>
<path id="Vector_10" d="M3.97607 33.1275C3.80157 33.0059 3.59845 32.8856 3.59997 32.6397C3.60997 31.0189 3.55183 29.3827 3.61834 27.7653C3.63115 27.4537 3.81825 27.3116 4.10886 27.2626C5.53332 27.2387 6.97554 27.2265 8.39818 27.2756C8.55468 27.281 8.69426 27.4803 8.77387 27.5953C8.65132 27.799 8.48283 27.9239 8.33805 28.1069C8.14328 28.104 7.94847 28.1049 7.75376 28.1096C6.78053 28.1093 5.4132 28.0721 4.47608 28.1272C4.46014 29.4962 4.45821 30.8656 4.47024 32.2347C5.69394 32.2904 7.17103 32.2482 8.40264 32.2404C8.40152 31.7425 8.3719 29.7579 8.4375 29.385C8.56863 29.1374 8.7582 28.9769 8.96466 28.795C9.06262 28.8263 9.0858 28.8365 9.17447 28.8885C9.28564 29.0308 9.23801 30.4501 9.24291 30.7278C9.25385 31.3496 9.24324 32.0337 9.23608 32.6617C9.23372 32.867 9.0984 32.969 8.95662 33.0883C8.64403 33.1589 7.45961 33.1376 7.04841 33.1346C6.03542 33.1265 4.98497 33.1504 3.97607 33.1275Z" fill="var(--fill-0, #2A3947)"/>
<path id="Vector_11" d="M8.77327 27.5946C8.84445 27.5143 9.00973 27.3061 9.09823 27.2777C9.39671 27.182 9.69137 27.4005 9.72964 27.6942C9.77629 28.0522 8.98997 28.5545 8.96406 28.7943C8.7576 28.9763 8.56803 29.1367 8.43689 29.3844C7.94861 29.7387 6.79696 31.4669 6.33022 31.4868C6.11393 31.4132 5.13661 30.3569 5.00545 30.1299C4.95137 29.7519 5.20134 29.6093 5.50586 29.4668C5.79819 29.7387 6.07461 30.0407 6.34897 30.3319C6.77493 29.8404 7.19312 29.3428 7.64601 28.8755C7.87683 28.6374 8.1019 28.3945 8.31427 28.1396C8.10535 28.1367 7.96327 28.1313 7.75316 28.1089C7.94786 28.1042 8.14267 28.1034 8.33745 28.1062C8.48223 27.9233 8.65072 27.7983 8.77327 27.5946Z" fill="var(--fill-0, #5F15EE)"/>
<path id="Vector_12" d="M8.77655 19.0742C9.1284 18.662 9.66181 18.5832 9.71873 19.2312C9.74366 19.5154 8.95598 20.1311 9.0328 20.2519C9.10137 20.2911 9.22058 20.3508 9.22301 20.4358C9.25618 21.6173 9.24676 22.8063 9.23531 23.9887C9.24267 24.3683 9.11259 24.6147 8.69118 24.6215C7.29642 24.6442 5.89534 24.6221 4.49868 24.6384C4.21314 24.6766 3.60922 24.5778 3.60808 24.1792C3.60338 22.5588 3.55018 20.7738 3.60396 19.1665C3.74553 18.9651 3.89017 18.7892 4.15848 18.7805C5.24518 18.7451 6.33474 18.7817 7.42255 18.7568C7.74694 18.7494 8.14334 18.7385 8.45898 18.7837C8.61991 18.8943 8.65308 18.9232 8.77655 19.0742Z" fill="var(--fill-0, white)"/>
<path id="Vector_13" d="M3.60396 19.1665C3.74553 18.9651 3.89017 18.7892 4.15848 18.7805C5.24518 18.7451 6.33474 18.7817 7.42255 18.7568C7.74694 18.7494 8.14334 18.7385 8.45898 18.7837C8.61991 18.8943 8.65308 18.9232 8.77655 19.0742C8.61292 19.3169 8.48553 19.5889 8.17341 19.6121C6.94602 19.6272 5.70195 19.6013 4.47868 19.6252C4.47868 20.9434 4.42048 22.4471 4.47345 23.7412C5.78478 23.7518 7.09614 23.7541 8.40747 23.748C8.4049 22.9134 8.37217 21.8158 8.41348 21.0024C8.45608 20.6725 8.78536 20.4538 9.0328 20.2519C9.10137 20.2911 9.22058 20.3508 9.22301 20.4358C9.25618 21.6173 9.24676 22.8063 9.23531 23.9887C9.24267 24.3683 9.11259 24.6147 8.69118 24.6215C7.29642 24.6442 5.89534 24.6221 4.49868 24.6384C4.21314 24.6766 3.60922 24.5778 3.60808 24.1792C3.60338 22.5588 3.55018 20.7738 3.60396 19.1665Z" fill="var(--fill-0, #2A3947)"/>
<path id="Vector_14" d="M8.77863 19.0741C9.13048 18.6619 9.6639 18.583 9.72082 19.231C9.74575 19.5152 8.95807 20.131 9.03489 20.2517C8.78745 20.4536 8.45816 20.6723 8.41557 21.0023L8.39777 20.9598C8.25086 20.9236 6.75138 22.9335 6.41976 23.0099C6.20479 23.0595 4.95973 21.678 4.99284 21.5589C5.31624 20.3961 5.95762 21.3605 6.34213 21.8111C6.69206 21.4543 7.01469 21.0449 7.35259 20.6763C7.66198 20.3387 7.98697 20.0324 8.28339 19.6816L8.2741 19.6435L8.17549 19.612C8.48762 19.5888 8.615 19.3167 8.77863 19.0741Z" fill="var(--fill-0, #5F15EE)"/>
<path id="Vector_15" d="M8.771 10.56C9.03864 10.1824 9.5526 10.0932 9.71761 10.6107C9.81381 10.9124 9.2045 11.4476 8.9955 11.7267L9.0083 11.7737L9.03087 11.7793C9.08323 11.799 9.20983 11.8501 9.21216 11.893C9.27992 13.1398 9.26199 14.5102 9.22284 15.763C9.21787 15.9213 8.97722 16.0578 8.91382 16.1004C8.64895 16.135 8.37571 16.1369 8.108 16.1349C6.76209 16.1247 5.4114 16.1574 4.06693 16.1223C3.85595 16.1168 3.72775 15.9323 3.61192 15.779C3.59469 15.5416 3.58507 15.3041 3.59064 15.0662C3.62493 13.5976 3.54838 12.1156 3.61256 10.6492C3.71816 10.4733 3.82804 10.3169 4.05339 10.2994C4.6141 10.2611 5.17646 10.2672 5.74072 10.2723C6.62295 10.2803 7.52101 10.2421 8.40115 10.299C8.55856 10.3092 8.66909 10.4504 8.771 10.56Z" fill="var(--fill-0, white)"/>
<path id="Vector_16" d="M3.61256 10.6507C3.71816 10.4747 3.82804 10.3184 4.05339 10.3008C4.6141 10.2625 5.17646 10.2687 5.74072 10.2738C6.62295 10.2818 7.52101 10.2436 8.40115 10.3005C8.55856 10.3107 8.66909 10.4519 8.771 10.5615C8.64362 10.7385 8.43077 11.0711 8.2387 11.1562C6.98919 11.1299 5.73923 11.1266 4.48959 11.1462C4.46962 12.4847 4.50486 13.9148 4.46239 15.2356C5.74812 15.2875 7.10657 15.2384 8.40777 15.2543L8.40675 12.4522C8.47495 12.2473 8.824 11.8618 9.03087 11.7807C9.08323 11.8005 9.20983 11.8516 9.21216 11.8945C9.27992 13.1413 9.26199 14.5117 9.22284 15.7645C9.21787 15.9227 8.97722 16.0592 8.91382 16.1018C8.64895 16.1364 8.37571 16.1384 8.108 16.1364C6.76209 16.1262 5.4114 16.1589 4.06693 16.1238C3.85595 16.1183 3.72775 15.9338 3.61192 15.7805C3.59469 15.5431 3.58507 15.3055 3.59064 15.0677C3.62493 13.5991 3.54838 12.1171 3.61256 10.6507Z" fill="var(--fill-0, #2A3947)"/>
<path id="Vector_17" d="M8.7691 10.56C9.03674 10.1824 9.5507 10.0932 9.71571 10.6107C9.81192 10.9124 9.2026 11.4476 8.9936 11.7267L9.00641 11.7737L9.02897 11.7793C8.8221 11.8604 8.47306 12.2458 8.40486 12.4508C7.87546 12.8056 6.82947 14.497 6.32524 14.484C6.03838 14.3664 5.263 13.4282 5.0357 13.1562C4.81768 12.8954 5.30263 12.5667 5.49274 12.4567C5.84216 12.6912 6.08953 12.9894 6.37473 13.2966C6.74978 12.8896 7.10461 12.451 7.47422 12.0371C7.59326 11.9038 8.21525 11.2782 8.2368 11.1547C8.42887 11.0696 8.64172 10.7371 8.7691 10.56Z" fill="var(--fill-0, #5F15EE)"/>
<path id="Vector_18" d="M11.6048 19.963C13.2467 19.9282 14.8956 19.9599 16.5381 19.9605C17.0319 19.9607 19.4156 19.8938 19.7338 20.0062C19.8599 20.0508 19.9908 20.1396 20.0435 20.267C20.0868 20.3718 20.0702 20.4753 20.0245 20.5756C19.9521 20.7343 19.8529 20.8095 19.6933 20.8704C17.073 20.9458 14.4246 20.8742 11.8029 20.8933C11.2639 20.8973 11.1321 20.3386 11.6048 19.963Z" fill="var(--fill-0, #C1C2C5)"/>
<path id="Vector_19" d="M13.9556 11.4326L17.4593 11.4314C18.1681 11.4286 18.9118 11.3806 19.6162 11.437C19.7234 11.4456 19.8428 11.4538 19.9274 11.5284C20.0326 11.6208 20.0819 11.7656 20.0844 11.9027C20.0866 12.0253 20.0519 12.1297 19.9597 12.215C19.7051 12.4506 17.8921 12.3608 17.4688 12.36L13.7853 12.3634C13.1414 12.3646 12.464 12.4094 11.8234 12.3517C11.7133 12.3417 11.5767 12.3302 11.4901 12.2539C11.3841 12.1605 11.3451 12.0131 11.3438 11.8763C11.343 11.7813 11.3504 11.6611 11.4225 11.5927C11.7072 11.3225 13.5036 11.4327 13.9556 11.4326Z" fill="var(--fill-0, #C1C2C5)"/>
<path id="Vector_20" d="M13.0115 22.7142C14.5323 22.6958 16.065 22.7388 17.5867 22.7156C17.8332 22.7119 18.0616 22.9062 18.0598 23.1459C18.0558 23.6886 17.5883 23.6881 17.1811 23.6808C16.8829 23.6755 16.6104 23.678 16.3314 23.6754C15.315 23.6698 14.2985 23.6707 13.2821 23.6781C12.7698 23.6801 12.2551 23.6925 11.7437 23.6674C11.5 23.6555 11.3353 23.5013 11.3166 23.2596C11.2597 22.5195 12.3251 22.7615 12.777 22.715C12.8367 22.7088 12.9498 22.7144 13.0115 22.7142Z" fill="var(--fill-0, #C1C2C5)"/>
<path id="Vector_21" d="M11.7915 14.2327C12.429 14.1913 17.5695 14.1945 17.846 14.292C17.9462 14.3274 18.0219 14.4138 18.0675 14.5073C18.1236 14.6225 18.1422 14.7735 18.0958 14.8949C18.0393 15.0424 17.8914 15.1099 17.7549 15.1636C16.9691 15.1837 11.7691 15.2482 11.5193 15.0958C11.4169 15.0332 11.3638 14.9129 11.3433 14.799C11.3202 14.6702 11.3278 14.5109 11.4119 14.4052C11.5095 14.2827 11.6449 14.2548 11.7915 14.2327Z" fill="var(--fill-0, #C1C2C5)"/>
<path id="Vector_22" d="M11.5922 31.2484C12.5268 31.1866 13.5182 31.2538 14.4595 31.2359C15.0788 31.2241 15.3329 31.7382 14.7794 32.1436C14.6161 32.1591 14.4142 32.1632 14.2499 32.1615C13.3911 32.1537 12.5238 32.201 11.6672 32.151C11.5663 32.1453 11.4348 32.0406 11.3836 31.9558C11.201 31.6535 11.324 31.4265 11.5922 31.2484Z" fill="var(--fill-0, #C1C2C5)"/>
<path id="Vector_23" d="M11.6507 28.4826C12.1386 28.4788 14.548 28.382 14.8296 28.5342C14.9282 28.5875 14.9954 28.6879 15.0278 28.7931C15.0644 28.912 15.0595 29.0434 15.0002 29.1544C14.9269 29.2912 14.8213 29.3395 14.682 29.3834L12.9369 29.4057C12.6535 29.4097 11.5898 29.4851 11.4316 29.2351C11.2369 28.9274 11.3372 28.668 11.6507 28.4826Z" fill="var(--fill-0, #C1C2C5)"/>
</g>
</svg>
