<svg preserveAspectRatio="none" width="100%" height="100%" overflow="visible" style="display: block;" viewBox="0 0 314 314" fill="none" xmlns="http://www.w3.org/2000/svg">
<g id="Group 1410122967">
<path id="Ellipse 7266" d="M314 157C314 243.709 243.709 314 157 314C70.2913 314 2.63201e-06 243.709 2.63201e-06 157C2.63201e-06 70.2913 70.2913 0 157 0C243.709 0 314 70.2913 314 157ZM12.2997 157C12.2997 236.916 77.0842 301.7 157 301.7C236.916 301.7 301.7 236.916 301.7 157C301.7 77.0842 236.916 12.2997 157 12.2997C77.0842 12.2997 12.2997 77.0842 12.2997 157Z" fill="var(--fill-0, #F4EEFF)"/>
<g id="Ellipse 7267">
<path d="M307.85 157C311.247 157 314.013 159.755 313.88 163.148C313.033 184.744 307.736 205.956 298.295 225.446C287.959 246.782 272.925 265.501 254.321 280.197C235.717 294.894 214.026 305.186 190.877 310.302C167.727 315.417 143.719 315.224 120.654 309.735C97.5902 304.247 76.0683 293.606 57.704 278.611C39.3396 263.617 24.6097 244.658 14.6194 223.157C4.62907 201.656 -0.362076 178.172 0.0204383 154.467C0.369842 132.814 5.1946 111.489 14.1661 91.8273C15.576 88.7373 19.2862 87.5238 22.3187 89.0537V89.0537C25.3511 90.5835 26.5564 94.277 25.1568 97.3716C17.0159 115.372 12.638 134.869 12.3186 154.665C11.966 176.514 16.5661 198.158 25.7738 217.974C34.9814 237.79 48.5574 255.264 65.483 269.084C82.4087 282.904 102.244 292.711 123.502 297.769C144.759 302.828 166.886 303.007 188.223 298.292C209.559 293.577 229.55 284.091 246.697 270.546C263.843 257.001 277.699 239.749 287.225 220.083C295.857 202.265 300.73 182.886 301.57 163.148C301.714 159.755 304.454 157 307.85 157V157Z" fill="url(#paint0_linear_0_187)" fill-opacity="0.5"/>
<path d="M307.85 157C311.247 157 314.013 159.755 313.88 163.148C313.033 184.744 307.736 205.956 298.295 225.446C287.959 246.782 272.925 265.501 254.321 280.197C235.717 294.894 214.026 305.186 190.877 310.302C167.727 315.417 143.719 315.224 120.654 309.735C97.5902 304.247 76.0683 293.606 57.704 278.611C39.3396 263.617 24.6097 244.658 14.6194 223.157C4.62907 201.656 -0.362076 178.172 0.0204383 154.467C0.369842 132.814 5.1946 111.489 14.1661 91.8273C15.576 88.7373 19.2862 87.5238 22.3187 89.0537V89.0537C25.3511 90.5835 26.5564 94.277 25.1568 97.3716C17.0159 115.372 12.638 134.869 12.3186 154.665C11.966 176.514 16.5661 198.158 25.7738 217.974C34.9814 237.79 48.5574 255.264 65.483 269.084C82.4087 282.904 102.244 292.711 123.502 297.769C144.759 302.828 166.886 303.007 188.223 298.292C209.559 293.577 229.55 284.091 246.697 270.546C263.843 257.001 277.699 239.749 287.225 220.083C295.857 202.265 300.73 182.886 301.57 163.148C301.714 159.755 304.454 157 307.85 157V157Z" fill="url(#paint1_linear_0_187)"/>
</g>
</g>
<defs>
<linearGradient id="paint0_linear_0_187" x1="157" y1="0" x2="157" y2="314" gradientUnits="userSpaceOnUse">
<stop stop-color="#9C6CFE"/>
<stop offset="1" stop-color="#5000EA"/>
</linearGradient>
<linearGradient id="paint1_linear_0_187" x1="161.409" y1="-0.000351392" x2="556.398" y2="512.932" gradientUnits="userSpaceOnUse">
<stop stop-color="#5B21FF"/>
<stop offset="0.598381" stop-color="#DFD0FF"/>
</linearGradient>
</defs>
</svg>
