<svg preserveAspectRatio="none" width="100%" height="100%" overflow="visible" style="display: block;" viewBox="0 0 24 24" fill="none" xmlns="http://www.w3.org/2000/svg">
<g id="3d-square">
<path id="Vector" d="M9 22H15C20 22 22 20 22 15V9C22 4 20 2 15 2H9C4 2 2 4 2 9V15C2 20 4 22 9 22Z" stroke="var(--stroke-0, #5F15EE)" stroke-width="1.5" stroke-linecap="round" stroke-linejoin="round"/>
<g id="Group">
<g id="Group_2">
<path id="Vector_2" d="M6.70001 9.26L12 12.33L17.26 9.28" stroke="var(--stroke-0, #5F15EE)" stroke-width="1.5" stroke-linecap="round" stroke-linejoin="round"/>
<path id="Vector_3" d="M12 17.77V12.32" stroke="var(--stroke-0, #5F15EE)" stroke-width="1.5" stroke-linecap="round" stroke-linejoin="round"/>
</g>
<path id="Vector_4" d="M10.76 6.29L7.56 8.07C6.84 8.47 6.23999 9.48 6.23999 10.31V13.7C6.23999 14.53 6.83 15.54 7.56 15.94L10.76 17.72C11.44 18.1 12.56 18.1 13.25 17.72L16.45 15.94C17.17 15.54 17.77 14.53 17.77 13.7V10.3C17.77 9.47 17.18 8.46 16.45 8.06L13.25 6.28C12.56 5.9 11.44 5.9 10.76 6.29Z" stroke="var(--stroke-0, #5F15EE)" stroke-width="1.5" stroke-linecap="round" stroke-linejoin="round"/>
</g>
<g id="Vector_5" opacity="0">
</g>
</g>
</svg>
