<svg preserveAspectRatio="none" width="100%" height="100%" overflow="visible" style="display: block;" viewBox="0 0 23.3052 23.93" fill="none" xmlns="http://www.w3.org/2000/svg">
<g id="Group 1686553867">
<path id="Vector" d="M5.58569 10.083C5.64699 9.99418 5.63098 8.97028 5.63891 8.77469C5.92157 1.80008 17.0968 1.63805 17.6357 8.54425C17.6747 9.04335 17.6392 9.56126 17.6547 10.0647C19.0941 10.3569 18.9797 11.4267 18.9765 12.5816C19.5832 12.5822 20.2288 12.5712 20.8323 12.5852C21.4966 13.0159 21.5321 13.7139 20.6741 13.9077C20.3723 13.9759 19.0185 13.8318 18.8681 13.9522C18.4785 14.6688 18.2773 14.8235 17.5024 15.0612C17.3864 15.1805 17.2876 15.7319 17.21 15.9371C16.5506 17.6401 15.2614 19.5924 13.5707 20.411C10.3089 21.9903 7.4692 19.2015 6.24747 16.3719C6.08698 16.0002 5.96499 15.3494 5.82934 15.0776L5.73409 15.0482C5.10797 14.8576 4.69023 14.5837 4.44148 13.9542C4.38008 13.8951 4.29359 13.9106 4.1875 13.9027C4.53942 13.6294 4.12017 12.9121 4.27575 12.5563C4.31254 12.4036 4.29599 11.8519 4.32826 11.6038C4.3307 10.7683 4.78892 10.2622 5.58569 10.083Z" fill="var(--fill-0, #E7DEF9)"/>
<path id="Vector_2" d="M5.75691 14.712C5.92024 14.6483 5.93266 14.5736 6.00803 14.5347C6.31818 14.3746 7.23011 14.4414 7.5685 14.4404C8.46069 14.4328 9.35289 14.4308 10.245 14.4345C11.946 14.4407 13.6452 14.4409 15.3462 14.4237C15.9662 14.4174 16.6022 14.4253 17.2197 14.4816C17.3192 14.4907 17.4313 14.5584 17.4846 14.6437C17.4927 14.7366 17.5004 14.8295 17.5074 14.9224L17.5027 15.0613C17.3867 15.1806 17.2879 15.7319 17.2102 15.9372C16.5509 17.6401 15.2617 19.5925 13.571 20.411C10.3092 21.9904 7.46948 19.2016 6.24776 16.372C6.08727 16.0002 5.96528 15.3494 5.82962 15.0777L5.73438 15.0483C5.78412 14.944 5.76413 14.8296 5.75691 14.712Z" fill="var(--fill-0, #E7DEF9)"/>
<path id="Vector_3" d="M9.5664 15.3792C10.0792 15.3653 10.4274 15.8366 10.916 15.9572C11.3266 16.0585 11.9864 16.0759 12.392 15.942C12.8493 15.7911 13.9937 14.7984 14.0201 15.9083C14.0243 16.0957 13.8464 16.2358 13.7139 16.3483C13.6159 16.4194 13.477 16.5077 13.3716 16.5678C12.5607 17.035 11.5973 17.1603 10.6939 16.9163C10.148 16.7631 8.43418 15.9824 9.5664 15.3792Z" fill="var(--fill-0, #B798FC)"/>
<path id="Vector_4" d="M4.32826 11.6055C4.34645 11.9384 4.33454 12.2586 4.32592 12.5913C4.75393 12.5922 5.2015 12.6002 5.62778 12.5835C8.17488 12.5424 10.7684 12.5855 13.3221 12.5772C14.2964 12.5717 15.2706 12.5716 16.2448 12.577C16.5535 12.577 17.3684 12.554 17.6447 12.5818C18.0506 12.6102 18.5685 12.5966 18.9765 12.5833C19.5832 12.5839 20.2288 12.573 20.8323 12.587C21.4966 13.0176 21.5321 13.7156 20.6741 13.9094C20.3723 13.9776 19.0185 13.8335 18.8681 13.9539C18.4785 14.6705 18.2773 14.8253 17.5024 15.0629L17.5071 14.9241C17.5001 14.8311 17.4924 14.7383 17.4843 14.6454C17.431 14.5601 17.3189 14.4923 17.2194 14.4833C16.6019 14.4269 15.9659 14.4191 15.3459 14.4253C13.6449 14.4425 11.9457 14.4424 10.2448 14.4362C9.3526 14.4325 8.46041 14.4344 7.56821 14.442C7.22982 14.443 6.31789 14.3763 6.00774 14.5363C5.93237 14.5752 5.91995 14.65 5.75663 14.7136C5.76384 14.8312 5.78383 14.9457 5.73409 15.05C5.10797 14.8593 4.69023 14.5854 4.44148 13.9559C4.38008 13.8968 4.29359 13.9123 4.1875 13.9045C4.53942 13.6311 4.12017 12.9138 4.27575 12.5581C4.31254 12.4053 4.29599 11.8536 4.32826 11.6055Z" fill="var(--fill-0, #B798FC)"/>
<path id="Vector_5" d="M5.64844 13.9757C5.955 13.9247 6.55969 13.9386 6.87971 13.9412C7.54415 13.9501 8.20866 13.9543 8.87318 13.9538C10.7466 13.9349 12.6202 13.9347 14.4937 13.9533C14.8791 13.9535 17.3631 13.906 17.5168 14.001C17.5881 14.0939 17.5778 14.2549 17.5826 14.3779C17.5663 14.5093 17.5381 14.8021 17.5091 14.9188C17.502 14.8259 17.4944 14.733 17.4862 14.6401C17.4329 14.5548 17.3208 14.4871 17.2213 14.478C16.6038 14.4217 15.9678 14.4138 15.3478 14.4201C13.6468 14.4373 11.9476 14.4371 10.2467 14.4309C9.35452 14.4272 8.46232 14.4292 7.57013 14.4368C7.23174 14.4378 6.31981 14.371 6.00966 14.5311C5.93429 14.57 5.92187 14.6447 5.75854 14.7084C5.71569 14.5166 5.67769 14.1803 5.64844 13.9757Z" fill="var(--fill-0, #D3BCFC)"/>
<path id="Vector_6" d="M17.6118 13.9002C17.9109 13.9058 18.6265 13.8518 18.8656 13.9522C18.4761 14.6687 18.2748 14.8235 17.5 15.0612L17.5047 14.9223C17.5338 14.8056 17.5619 14.5128 17.5782 14.3814C17.6189 14.2397 17.6107 14.0511 17.6118 13.9002Z" fill="var(--fill-0, #8E65FD)"/>
<path id="Vector_7" d="M4.4375 13.9534C4.59003 13.8802 5.55245 13.8208 5.64253 13.9784C5.67178 14.183 5.70979 14.5193 5.75264 14.7111C5.75985 14.8287 5.77985 14.9431 5.7301 15.0474C5.10399 14.8567 4.68624 14.5829 4.4375 13.9534Z" fill="var(--fill-0, #8E65FD)"/>
<path id="Vector_8" d="M17.6506 10.0625C19.0901 10.3547 18.9757 11.4245 18.9724 12.5793C18.5644 12.5926 18.0466 12.6063 17.6407 12.5779C17.6466 11.7386 17.6317 10.9029 17.6506 10.0625Z" fill="var(--fill-0, #8E65FD)"/>
<path id="Vector_9" d="M5.58789 10.082C5.66501 10.2477 5.62353 12.2362 5.62999 12.5807C5.2037 12.5975 4.75613 12.5895 4.32812 12.5885C4.33674 12.2559 4.34865 11.9357 4.33046 11.6027C4.3329 10.7673 4.79112 10.2612 5.58789 10.082Z" fill="var(--fill-0, #8E65FD)"/>
<path id="Vector_10" d="M9.04534 10.4609C9.40347 10.4645 9.4942 10.5559 9.71057 10.8197C9.70286 11.1764 9.77155 11.7658 9.6098 12.0502C9.52575 12.198 9.37914 12.2229 9.22468 12.2606C8.40419 12.2646 8.48092 11.2924 8.67343 10.7339C8.7274 10.5774 8.89909 10.5113 9.04534 10.4609Z" fill="var(--fill-0, #8E65FD)"/>
<path id="Vector_11" d="M14.0433 10.4659C14.8604 10.4247 14.7818 11.5747 14.5455 12.0698C14.4801 12.2066 14.33 12.2295 14.1934 12.26C13.8723 12.2634 13.6325 12.1355 13.5716 11.8076C13.4746 11.285 13.4358 10.6318 14.0433 10.4659Z" fill="var(--fill-0, #8E65FD)"/>
<path id="Vector_12" d="M2.14776 0.0302434C3.11909 -0.0324541 4.23096 0.0201584 5.21452 0.030279C5.6243 0.0345138 5.98347 0.290508 6.03809 0.721746C6.18473 1.87912 5.15132 1.84675 4.32434 1.81671C3.64687 1.80924 3.00909 1.78032 2.3421 1.82371C2.07731 1.84097 1.96911 1.97882 1.83097 2.17567C1.7588 2.51797 1.78184 3.33584 1.78263 3.71084C1.7878 4.23582 1.8187 4.77437 1.75442 5.29831C1.67464 5.94868 0.865854 6.1742 0.383833 5.82547C-0.140285 5.44627 0.0510737 4.54055 0.0233318 3.96648C-0.0615808 2.20843 -0.0267332 0.308668 2.14776 0.0302434Z" fill="var(--fill-0, #8E65FD)"/>
<path id="Vector_13" d="M18.0598 0.0272581C18.5529 -0.00522115 19.1789 0.00834485 19.6758 0.0126515C20.3563 0.0185372 21.2429 -0.0677395 21.8722 0.199775C22.4301 0.437537 22.8695 0.888658 23.0926 1.4525C23.1881 1.68984 23.2422 1.93725 23.2676 2.19138C23.3187 2.70193 23.3387 5.14473 23.1889 5.48061C23.0687 5.7501 22.8673 5.8783 22.6006 5.97835C22.1679 5.99386 21.6263 5.86566 21.5528 5.34668C21.4205 4.41084 21.5968 3.39595 21.5115 2.44924C21.4834 2.13708 21.3607 1.99062 21.1207 1.81462C20.4297 1.79908 18.2613 1.9416 17.7611 1.67361C17.5528 1.56207 17.389 1.38697 17.3258 1.15603C17.2642 0.930791 17.3035 0.638047 17.4204 0.435887C17.5636 0.188147 17.7964 0.0964515 18.0598 0.0272581Z" fill="var(--fill-0, #8E65FD)"/>
<path id="Vector_14" d="M0.722208 18.0402C1.98872 17.9188 1.73093 19.062 1.79004 19.8315C1.8522 20.64 1.40086 22.1151 2.49924 22.1306C3.35475 22.2071 4.70729 21.973 5.49594 22.2252C6.39976 22.5142 6.16996 23.5652 5.32493 23.9044C5.13641 23.9429 4.0759 23.9253 3.84126 23.9212C3.37621 23.9131 2.63805 23.9532 2.19167 23.9084C1.9557 23.8836 1.72411 23.8275 1.50293 23.7416C0.927133 23.517 0.48886 23.1283 0.239864 22.5575C0.142929 22.3319 0.0796579 22.0933 0.0521313 21.8494C-0.00737214 21.3511 -0.0471368 18.9575 0.112927 18.5633C0.227376 18.2815 0.457745 18.154 0.722208 18.0402Z" fill="var(--fill-0, #8E65FD)"/>
<path id="Vector_15" d="M22.2192 18.0409C22.2767 18.0355 22.3344 18.0323 22.3921 18.0313C22.9891 18.0253 23.3419 18.6063 23.2912 19.1457C23.1699 20.4376 23.6465 22.2033 22.6359 23.2214C21.8484 24.0148 20.9399 23.929 19.9384 23.9243L18.319 23.9231C17.6051 23.9398 17.0818 23.2133 17.3695 22.6534C17.8466 21.6232 20.4726 22.413 21.1443 22.0699C22.2212 21.5199 20.6615 18.6244 22.2192 18.0409Z" fill="var(--fill-0, #8E65FD)"/>
<path id="Vector_16" d="M4.27282 12.5547C4.11724 12.9104 4.53649 13.6277 4.18457 13.9011C3.98729 13.9401 2.70567 13.9121 2.46525 13.9011C1.77026 13.5033 1.84509 12.9554 2.50892 12.5826C3.09107 12.5655 3.69016 12.6028 4.27282 12.5547Z" fill="var(--fill-0, #B798FC)"/>
</g>
</svg>
