<svg preserveAspectRatio="none" width="100%" height="100%" overflow="visible" style="display: block;" viewBox="0 0 21.9978 25.254" fill="none" xmlns="http://www.w3.org/2000/svg">
<g id="Group 1686553869">
<path id="Vector" d="M5.72285 3.21131C6.09699 2.10328 6.50492 1.39267 7.8285 1.27224C8.05138 1.25194 8.29776 1.31282 8.50805 1.22885C8.76698 1.12229 9.02923 0.748147 9.24473 0.594651C10.0694 0.00719146 11.0714 -0.155639 12.0294 0.153734C12.8115 0.406388 13.0993 0.845225 13.6406 1.2711C14.4976 1.25504 14.9892 1.28531 15.6972 1.8589C16.259 2.31406 16.1554 2.82526 16.4092 3.2152C16.9744 4.08396 17.3406 4.116 17.3602 5.32172C17.3811 6.60951 17.1916 7.217 16.4171 8.2586C17.6798 8.27995 17.7875 9.0641 17.7353 10.1118C17.6829 11.162 17.13 11.358 16.2022 11.3764C16.0968 11.4333 16.0911 11.4339 16.0547 11.5847C15.8524 12.4211 15.4756 13.128 14.9135 13.7767C14.8101 13.896 14.4025 14.3198 14.3371 14.4092C14.329 14.6553 14.2781 15.723 14.3718 15.8917C14.046 16.4168 13.712 16.9368 13.3699 17.4514C13.1936 17.7182 12.4693 18.7744 12.3912 19.0392C11.9271 19.9508 11.4574 20.8595 10.9823 21.7653C10.5186 20.8506 10.041 19.9577 9.58612 19.0354C9.4268 18.6717 9.11829 18.2403 8.90154 17.9012C8.48095 17.2431 8.00338 16.5738 7.62456 15.8934C7.65702 15.7176 7.67209 14.6919 7.67897 14.4502C7.65524 14.3856 7.25903 13.9941 7.18054 13.9156C6.40565 13.141 6.19717 12.3479 5.86044 11.3652C5.02127 11.384 4.3048 11.2797 4.2663 10.2493C4.22511 9.14655 4.16011 8.37669 5.49476 8.22591C5.50107 8.22346 5.50738 8.221 5.51369 8.21854C4.68137 7.2634 4.46484 6.33377 4.56014 5.09215C4.62888 4.19634 5.06397 3.73751 5.72285 3.21131Z" fill="var(--fill-0, #E8DAFC)"/>
<path id="Vector_2" d="M5.73045 3.21131C6.1046 2.10328 6.51252 1.39267 7.8361 1.27224C8.05898 1.25194 8.30536 1.31282 8.51565 1.22885C8.77458 1.12229 9.03683 0.748147 9.25234 0.594651C10.077 0.00719146 11.079 -0.15564 12.037 0.153734C12.8191 0.406388 13.1069 0.845225 13.6482 1.2711C14.5052 1.25504 14.9968 1.28531 15.7048 1.8589C16.2666 2.31406 16.163 2.82526 16.4168 3.2152C16.982 4.08396 17.3482 4.116 17.3678 5.32172C17.3887 6.60951 17.1992 7.217 16.4247 8.2586C16.3667 8.28142 16.2817 8.31815 16.2234 8.33282C15.3335 8.11519 15.3969 7.51073 15.4035 6.77922C15.41 6.06634 14.6704 6.06392 14.2651 5.66869C14.0167 5.42636 13.8433 5.12492 13.574 4.88855C12.1993 5.64296 10.9872 5.9704 9.41736 5.40349C9.05531 5.27275 8.75704 5.04432 8.39344 4.93889C8.23571 4.89312 8.13368 5.07802 8.06415 5.18576C7.78063 5.70285 7.23904 5.89448 6.79167 6.20631C6.42927 6.45893 6.49461 7.34287 6.44023 7.77725C6.23512 8.01585 6.08891 8.19115 5.7939 8.32371C5.65748 8.30228 5.63765 8.29975 5.52129 8.21854C4.68897 7.2634 4.47244 6.33377 4.56774 5.09216C4.63648 4.19634 5.07157 3.73752 5.73045 3.21131Z" fill="var(--fill-0, #A780FB)"/>
<path id="Vector_3" d="M7.67942 14.4473C7.78893 14.4497 7.93422 14.5575 8.02053 14.6224C9.44576 15.6953 11.6498 15.8021 13.2444 15.0568C13.5876 14.8964 13.9744 14.6115 14.3375 14.4062C14.3295 14.6524 14.2786 15.7201 14.3722 15.8888C14.0464 16.4139 13.7124 16.9338 13.3704 17.4485C13.194 17.7153 12.4697 18.7715 12.3916 19.0363C11.9275 19.9478 11.4579 20.8565 10.9828 21.7624C10.519 20.8477 10.0414 19.9548 9.58656 19.0325C9.42724 18.6688 9.11874 18.2374 8.90198 17.8982C8.4814 17.2402 8.00383 16.5708 7.625 15.8905C7.65746 15.7147 7.67254 14.689 7.67942 14.4473Z" fill="var(--fill-0, #DDCAFC)"/>
<path id="Vector_4" d="M5.51369 8.21484C5.63004 8.29605 5.64988 8.29858 5.7863 8.32001C5.72259 8.48239 5.80429 11.1146 5.86044 11.3615C5.02127 11.3803 4.3048 11.276 4.2663 10.2456C4.22511 9.14285 4.16011 8.37299 5.49476 8.22221C5.50107 8.21976 5.50738 8.2173 5.51369 8.21484Z" fill="var(--fill-0, #C3A5FC)"/>
<path id="Vector_5" d="M16.4278 8.25781C17.6904 8.27916 17.7981 9.06331 17.7459 10.111C17.6936 11.1612 17.1407 11.3572 16.2128 11.3757C16.1996 11.3677 16.1562 11.3088 16.1562 11.3088C16.1784 11.0866 16.204 10.8309 16.2126 10.6109C16.2413 9.87142 16.2099 9.13027 16.2669 8.39185C16.2534 8.3719 16.24 8.35198 16.2265 8.33203C16.2847 8.31737 16.3698 8.28064 16.4278 8.25781Z" fill="var(--fill-0, #C3A5FC)"/>
<path id="Vector_6" d="M14.3758 15.889C14.5135 15.6951 14.5899 15.5332 14.8284 15.4922C15.2366 15.5532 16.3812 16.8111 16.7408 17.1564C18.5246 17.3586 19.7146 17.6321 20.9135 19.1238C21.9445 20.4067 21.9503 21.4578 21.9908 23.0004C22.0534 25.3854 21.7331 25.2289 19.4896 25.2299L17.0849 25.2302L14.5911 25.2292C14.254 25.229 13.6793 25.2467 13.3655 25.2235C11.975 25.2831 10.1323 25.2291 8.70335 25.2293L8.88904 25.1754C9.0258 24.873 7.40758 21.897 7.39168 21.2943C7.391 21.2685 7.35801 21.2455 7.33594 21.2223C7.8923 20.7172 9.26258 19.6366 9.59009 19.0327C10.045 19.9551 10.5226 20.8479 10.9863 21.7626C11.4614 20.8568 11.931 19.9481 12.3952 19.0366C12.4733 18.7717 13.1975 17.7155 13.3739 17.4487C13.7159 16.9341 14.05 16.4141 14.3758 15.889Z" fill="var(--fill-0, #A780FB)"/>
<path id="Vector_7" d="M9.59009 19.0352C10.045 19.9575 10.5226 20.8504 10.9863 21.7651C11.4614 20.8592 11.931 19.9505 12.3952 19.039C12.5098 19.1375 12.4559 19.2576 12.5412 19.3261C13.0782 19.7568 14.1453 20.9885 14.721 21.2524C14.5242 21.6662 13.0049 25.0908 13.0246 25.1759C13.1554 25.2026 13.2327 25.2141 13.3655 25.2259C11.975 25.2856 10.1323 25.2316 8.70335 25.2317L8.88904 25.1779C9.0258 24.8754 7.40758 21.8994 7.39168 21.2967C7.391 21.2709 7.35801 21.2479 7.33594 21.2248C7.8923 20.7197 9.26258 19.6391 9.59009 19.0352Z" fill="var(--fill-0, #B491FB)"/>
<path id="Vector_8" d="M14.379 15.889C14.5167 15.6951 14.5932 15.5332 14.8316 15.4922C15.2399 15.5532 16.3845 16.8111 16.7441 17.1564C16.3827 17.4386 15.3573 20.7267 14.7243 21.2499C14.1486 20.986 13.0815 19.7543 12.5445 19.3237C12.4591 19.2552 12.5131 19.1351 12.3984 19.0366C12.4765 18.7717 13.2008 17.7155 13.3772 17.4487C13.7192 16.9341 14.0532 16.4141 14.379 15.889Z" fill="var(--fill-0, #C3A5FC)"/>
<path id="Vector_9" d="M5.26756 17.1621C5.48322 16.791 6.37627 16.0737 6.70809 15.7338C7.12675 15.3051 7.34725 15.5168 7.62957 15.891C8.00839 16.5714 8.48596 17.2407 8.90655 17.8988C9.1233 18.2379 9.43181 18.6693 9.59113 19.033C9.26361 19.6369 7.89333 20.7175 7.33697 21.2226C7.35904 21.2458 7.39203 21.2687 7.39271 21.2945C7.40862 21.8973 9.02683 24.8733 8.89007 25.1757L8.70438 25.2296L3.58182 25.2307C2.74579 25.2311 1.90114 25.2524 1.06696 25.2123C-0.25726 25.138 0.0640548 24.0092 0.0155722 23.1548C-0.0981332 21.1513 0.393231 19.4275 2.07278 18.1772C3.11305 17.4028 4.00403 17.298 5.26756 17.1621Z" fill="var(--fill-0, #A780FB)"/>
<path id="Vector_10" d="M5.26562 17.1621C5.48128 16.791 6.37434 16.0737 6.70616 15.7338C7.12482 15.3051 7.34531 15.5168 7.62763 15.891C8.00646 16.5714 8.48403 17.2407 8.90461 17.8988C9.12137 18.2379 9.42987 18.6693 9.58919 19.033C9.26168 19.6369 7.89139 20.7175 7.33503 21.2226C7.31228 21.2223 7.2898 21.2215 7.26728 21.2179C6.81068 21.1434 5.68372 17.7283 5.26562 17.1621Z" fill="var(--fill-0, #C3A5FC)"/>
</g>
</svg>
