<svg preserveAspectRatio="none" width="100%" height="100%" overflow="visible" style="display: block;" viewBox="0 0 13.125 16.125" fill="none" xmlns="http://www.w3.org/2000/svg">
<g id="mobile">
<path id="Vector" d="M12.5625 4.3125V11.8125C12.5625 14.8125 11.8125 15.5625 8.8125 15.5625H4.3125C1.3125 15.5625 0.5625 14.8125 0.5625 11.8125V4.3125C0.5625 1.3125 1.3125 0.5625 4.3125 0.5625H8.8125C11.8125 0.5625 12.5625 1.3125 12.5625 4.3125Z" stroke="var(--stroke-0, #5F15EE)" stroke-width="1.125" stroke-linecap="round" stroke-linejoin="round"/>
<path id="Vector_2" d="M8.0625 3.1875H5.0625" stroke="var(--stroke-0, #5F15EE)" stroke-width="1.125" stroke-linecap="round" stroke-linejoin="round"/>
<path id="Vector_3" d="M6.5625 13.3875C7.20453 13.3875 7.725 12.867 7.725 12.225C7.725 11.583 7.20453 11.0625 6.5625 11.0625C5.92047 11.0625 5.4 11.583 5.4 12.225C5.4 12.867 5.92047 13.3875 6.5625 13.3875Z" stroke="var(--stroke-0, #5F15EE)" stroke-width="1.125" stroke-linecap="round" stroke-linejoin="round"/>
</g>
</svg>
