<svg preserveAspectRatio="none" width="100%" height="100%" overflow="visible" style="display: block;" viewBox="0 0 30.0001 34.8471" fill="none" xmlns="http://www.w3.org/2000/svg">
<g id="Group 1686553887">
<path id="Vector" d="M16.0576 14.3732C16.7742 14.1557 17.5799 14.0966 18.3249 14.1304C21.7324 14.2846 24.495 16.6657 25.4654 19.8758C26.1111 22.0202 25.8654 24.3343 24.7838 26.2952C24.4276 26.9547 24.1423 27.3094 23.6528 27.856C23.957 28.1521 24.3133 28.5189 24.6227 28.7987C25.158 28.3872 25.7001 28.1101 26.2684 28.6632C27.4102 29.7738 28.6329 30.9786 29.6927 32.156C30.2885 32.8178 29.9532 34.0944 29.2405 34.5121C28.72 34.8738 27.8492 35.0127 27.3437 34.5697C26.2187 33.584 25.168 32.3524 24.0724 31.3228C23.4137 30.7036 23.4576 30.1407 23.9782 29.451L23.0417 28.4644C17.4319 33.2592 9.43948 28.7208 10.027 21.5696C10.1886 19.3973 11.2199 17.3822 12.8874 15.9806C12.9873 15.8965 13.0888 15.8142 13.1917 15.7338C14.0731 15.0511 14.9782 14.6311 16.0576 14.3732Z" fill="var(--fill-0, #2C3B48)"/>
<path id="Vector_2" d="M13.1899 15.7342C14.0713 15.0514 14.9764 14.6315 16.0558 14.3735L16.0964 14.4163C15.7872 14.5547 15.3824 14.6167 15.0423 14.7594C14.463 15.0024 13.8567 15.5918 13.324 15.8153C13.2709 15.7748 13.2553 15.7533 13.1899 15.7342Z" fill="var(--fill-0, #151C21)"/>
<path id="Vector_3" d="M20.0389 29.0418C16.4907 30.165 12.6779 28.3542 11.3059 24.8947C9.93396 21.4351 11.4694 17.5035 14.8229 15.8894C18.1763 14.2753 22.207 15.5278 24.0551 18.7582C25.9031 21.9887 24.9398 26.0981 21.8487 28.1706L21.8668 28.2181C21.6017 28.6201 20.7523 28.9659 20.2916 29.0933C20.1847 29.1228 20.1276 29.0909 20.0389 29.0418Z" fill="var(--fill-0, white)"/>
<path id="Vector_4" d="M21.8495 28.1713L21.8676 28.2187C21.6025 28.6207 20.7531 28.9666 20.2924 29.0939C20.1855 29.1234 20.1283 29.0915 20.0397 29.0424C20.6812 28.8395 21.2906 28.5462 21.8495 28.1713Z" fill="var(--fill-0, #151C21)"/>
<path id="Vector_5" d="M21.128 19.5038C21.1536 19.5016 21.1792 19.5002 21.2048 19.4994C21.7484 19.4848 22.0344 20.046 21.6635 20.4493C20.2892 21.9491 18.887 23.4285 17.5092 24.9259C16.8181 25.6771 16.4064 24.9674 15.8678 24.4197L14.6931 23.218C14.4779 23.0087 14.0544 22.6526 14.0456 22.3444C14.0335 21.9273 14.5563 21.5749 14.9247 21.8597C15.2189 22.087 15.4414 22.3319 15.6998 22.5932C16.1125 23.0172 16.5305 23.436 16.9537 23.8495C17.5952 23.1368 18.3272 22.3573 18.9913 21.6685C19.4414 21.2017 20.6435 19.7527 21.128 19.5038Z" fill="var(--fill-0, #5F15EE)"/>
<path id="Vector_6" d="M25.4882 29.2553C25.7954 29.2888 27.2932 30.9854 27.6347 31.2848C27.9829 31.6811 28.4715 32.0121 28.8019 32.4178C29.4504 33.2138 28.9584 33.8851 28.0967 34.0091C27.7814 33.8536 24.6528 30.7107 24.4589 30.3788C24.4231 30.0672 25.227 29.3942 25.4882 29.2553Z" fill="var(--fill-0, #5F15EE)"/>
<path id="Vector_7" d="M11.5146 0.000977844C14.9993 -0.0590418 17.8749 2.71311 17.9426 6.19771C18.0103 9.68227 15.2445 12.5641 11.7601 12.6394C8.2648 12.7151 5.37204 9.93871 5.30412 6.44324C5.23621 2.94777 8.01893 0.0611669 11.5146 0.000977844Z" fill="var(--fill-0, #2C3B48)"/>
<path id="Vector_8" d="M11.1449 0.930606C14.1247 0.669934 16.7495 2.87921 17.0012 5.85981C17.2528 8.8404 15.0355 11.4585 12.0542 11.7011C9.08564 11.9427 6.48118 9.73701 6.2306 6.76915C5.98002 3.80132 8.17782 1.19016 11.1449 0.930606Z" fill="var(--fill-0, white)"/>
<path id="Vector_9" d="M8.73742 13.5902C9.14828 13.5469 9.3807 13.9341 9.22033 14.2239C9.02861 14.5704 7.94613 14.6573 7.59146 14.7133C6.6512 14.8617 5.76591 14.9914 4.86978 15.3202C4.07672 15.6081 3.35547 16.0645 2.75581 16.6581C0.928666 18.4801 0.896285 20.7318 0.895337 23.0986V26.1355C2.79117 26.1123 4.68718 26.1086 6.58308 26.1245C7.54323 26.1252 8.51543 26.1022 9.47294 26.1524C10.0098 26.1805 10.0542 26.7468 9.63999 27.0265C8.51198 27.1139 6.69703 27.0428 5.51895 27.0452L2.70633 27.0425C2.0872 27.0472 1.46576 27.0655 0.845648 27.0506C0.349131 27.0384 0.0423598 26.9385 0.0174306 26.3847C-0.0185067 25.586 0.0320287 24.7407 0.0194964 23.9471C-0.0209797 21.3853 -0.151654 18.7099 1.58184 16.5988C3.00663 14.7705 4.72068 14.3261 6.90123 13.907C7.47159 13.7974 8.16571 13.6569 8.73742 13.5902Z" fill="var(--fill-0, #2C3B48)"/>
</g>
</svg>
