<svg preserveAspectRatio="none" width="100%" height="100%" overflow="visible" style="display: block;" viewBox="0 0 14 14" fill="none" xmlns="http://www.w3.org/2000/svg">
<g id="SVG" clip-path="url(#clip0_0_79)">
<path id="Vector" d="M6.42538 1.64225C6.45037 1.50843 6.52138 1.38757 6.6261 1.3006C6.73082 1.21362 6.86266 1.16602 6.99879 1.16602C7.13492 1.16602 7.26676 1.21362 7.37149 1.3006C7.47621 1.38757 7.54722 1.50843 7.57221 1.64225L8.18529 4.88441C8.22884 5.11492 8.34085 5.32694 8.50673 5.49281C8.6726 5.65868 8.88462 5.7707 9.11513 5.81425L12.3573 6.42733C12.4911 6.45232 12.612 6.52333 12.6989 6.62805C12.7859 6.73277 12.8335 6.86462 12.8335 7.00075C12.8335 7.13687 12.7859 7.26872 12.6989 7.37344C12.612 7.47816 12.4911 7.54917 12.3573 7.57416L9.11513 8.18725C8.88462 8.23079 8.6726 8.34281 8.50673 8.50868C8.34085 8.67455 8.22884 8.88658 8.18529 9.11708L7.57221 12.3592C7.54722 12.4931 7.47621 12.6139 7.37149 12.7009C7.26676 12.7879 7.13492 12.8355 6.99879 12.8355C6.86266 12.8355 6.73082 12.7879 6.6261 12.7009C6.52138 12.6139 6.45037 12.4931 6.42538 12.3592L5.81229 9.11708C5.76875 8.88658 5.65673 8.67455 5.49086 8.50868C5.32499 8.34281 5.11296 8.23079 4.88246 8.18725L1.64029 7.57416C1.50648 7.54917 1.38562 7.47816 1.29865 7.37344C1.21167 7.26872 1.16406 7.13687 1.16406 7.00075C1.16406 6.86462 1.21167 6.73277 1.29865 6.62805C1.38562 6.52333 1.50648 6.45232 1.64029 6.42733L4.88246 5.81425C5.11296 5.7707 5.32499 5.65868 5.49086 5.49281C5.65673 5.32694 5.76875 5.11492 5.81229 4.88441L6.42538 1.64225Z" stroke="var(--stroke-0, #5F15EE)" stroke-width="1.16667" stroke-linecap="round" stroke-linejoin="round"/>
<path id="Vector_2" d="M11.6641 1.16602V3.49935" stroke="var(--stroke-0, #5F15EE)" stroke-width="1.16667" stroke-linecap="round" stroke-linejoin="round"/>
<path id="Vector_3" d="M12.8333 2.33398H10.5" stroke="var(--stroke-0, #5F15EE)" stroke-width="1.16667" stroke-linecap="round" stroke-linejoin="round"/>
<path id="Vector_4" d="M2.33073 12.8333C2.97506 12.8333 3.4974 12.311 3.4974 11.6667C3.4974 11.0223 2.97506 10.5 2.33073 10.5C1.6864 10.5 1.16406 11.0223 1.16406 11.6667C1.16406 12.311 1.6864 12.8333 2.33073 12.8333Z" stroke="var(--stroke-0, #5F15EE)" stroke-width="1.16667" stroke-linecap="round" stroke-linejoin="round"/>
</g>
<defs>
<clipPath id="clip0_0_79">
<rect width="14" height="14" fill="white"/>
</clipPath>
</defs>
</svg>
