<svg preserveAspectRatio="none" width="100%" height="100%" overflow="visible" style="display: block;" viewBox="0 0 14 14" fill="none" xmlns="http://www.w3.org/2000/svg">
<g id="SVG">
<path id="Vector" d="M9.33594 6.41667L10.5026 7.58333L12.8359 5.25" stroke="var(--stroke-0, #5F15EE)" stroke-width="1.16667" stroke-linecap="round" stroke-linejoin="round"/>
<path id="Vector_2" d="M9.33073 12.25V11.0833C9.33073 10.4645 9.0849 9.871 8.64731 9.43342C8.20973 8.99583 7.61623 8.75 6.9974 8.75H3.4974C2.87856 8.75 2.28506 8.99583 1.84748 9.43342C1.4099 9.871 1.16406 10.4645 1.16406 11.0833V12.25" stroke="var(--stroke-0, #5F15EE)" stroke-width="1.16667" stroke-linecap="round" stroke-linejoin="round"/>
<path id="Vector_3" d="M5.2474 6.41667C6.53606 6.41667 7.58073 5.372 7.58073 4.08333C7.58073 2.79467 6.53606 1.75 5.2474 1.75C3.95873 1.75 2.91406 2.79467 2.91406 4.08333C2.91406 5.372 3.95873 6.41667 5.2474 6.41667Z" stroke="var(--stroke-0, #5F15EE)" stroke-width="1.16667" stroke-linecap="round" stroke-linejoin="round"/>
</g>
</svg>
