<svg preserveAspectRatio="none" width="100%" height="100%" overflow="visible" style="display: block;" viewBox="0 0 16 16" fill="none" xmlns="http://www.w3.org/2000/svg">
<g id="ic:round-call-made">
<path id="Vector" d="M5.99885 3.9987C5.99885 4.37203 6.29885 4.66536 6.66551 4.66536H10.3922L3.13218 11.9254C3.00753 12.05 2.9375 12.2191 2.9375 12.3954C2.9375 12.5716 3.00753 12.7407 3.13218 12.8654C3.25683 12.99 3.4259 13.06 3.60218 13.06C3.77846 13.06 3.94753 12.99 4.07218 12.8654L11.3322 5.60536V9.33203C11.3322 9.6987 11.6322 9.9987 11.9988 9.9987C12.3655 9.9987 12.6655 9.6987 12.6655 9.33203V3.9987C12.6655 3.63203 12.3655 3.33203 11.9988 3.33203H6.66551C6.29885 3.33203 5.99885 3.63203 5.99885 3.9987Z" fill="var(--fill-0, #0F1117)"/>
</g>
</svg>
