<svg width="23" height="25" viewBox="0 0 23 25" fill="none" xmlns="http://www.w3.org/2000/svg">
<path d="M4.90192 13.9637V12.3687H8.85654L13.2524 7.97287H4.90714V4.5899H16.6594L21.2555 0H3.10456C2.37001 0 1.66556 0.291796 1.14616 0.811195C0.626762 1.33059 0.334961 2.03505 0.334961 2.76959V20.8914L4.90296 16.3015L4.90192 13.9637Z" fill="url(#paint0_linear_3139_33767)"/>
<path d="M20.1424 7.97099H16.6342L12.2383 12.3669H18.344V15.6737H8.94301L0 24.6219H5.84169L10.0769 20.0696H20.1518C20.8864 20.0693 21.5909 19.7773 22.1102 19.2577C22.6296 18.7381 22.9213 18.0336 22.9213 17.2989V10.7427C22.9215 10.378 22.8497 10.017 22.71 9.68014C22.5703 9.34332 22.3654 9.0374 22.1073 8.7799C21.8491 8.5224 21.5426 8.3184 21.2055 8.17959C20.8683 8.04078 20.507 7.96989 20.1424 7.97099Z" fill="url(#paint1_linear_3139_33767)"/>
<defs>
<linearGradient id="paint0_linear_3139_33767" x1="0.337047" y1="10.4431" x2="21.2555" y2="10.4431" gradientUnits="userSpaceOnUse">
<stop stop-color="#9C6CFE"/>
<stop offset="0.98" stop-color="#5000EA"/>
</linearGradient>
<linearGradient id="paint1_linear_3139_33767" x1="-0.0052158" y1="16.2964" x2="22.912" y2="16.2964" gradientUnits="userSpaceOnUse">
<stop stop-color="#9C6CFE"/>
<stop offset="0.98" stop-color="#5000EA"/>
</linearGradient>
</defs>
</svg>
