<svg width="14" height="14" viewBox="0 0 14 14" fill="none" xmlns="http://www.w3.org/2000/svg">
<path d="M9.33333 1.75H4.66667C3.05584 1.75 1.75 3.05584 1.75 4.66667V9.33333C1.75 10.9442 3.05584 12.25 4.66667 12.25H9.33333C10.9442 12.25 12.25 10.9442 12.25 9.33333V4.66667C12.25 3.05584 10.9442 1.75 9.33333 1.75Z" stroke="white" stroke-opacity="0.7" stroke-width="0.875" stroke-linecap="round" stroke-linejoin="round"/>
<path d="M6.9974 9.33464C8.28606 9.33464 9.33073 8.28997 9.33073 7.0013C9.33073 5.71264 8.28606 4.66797 6.9974 4.66797C5.70873 4.66797 4.66406 5.71264 4.66406 7.0013C4.66406 8.28997 5.70873 9.33464 6.9974 9.33464Z" stroke="white" stroke-opacity="0.7" stroke-width="0.875" stroke-linecap="round" stroke-linejoin="round"/>
<path d="M10.2089 4.25755C10.4666 4.25755 10.6755 4.04862 10.6755 3.79089C10.6755 3.53315 10.4666 3.32422 10.2089 3.32422C9.95112 3.32422 9.74219 3.53315 9.74219 3.79089C9.74219 4.04862 9.95112 4.25755 10.2089 4.25755Z" fill="white" fill-opacity="0.7" stroke="white" stroke-opacity="0.7" stroke-width="0.875" stroke-linecap="round" stroke-linejoin="round"/>
</svg>
