<svg width="14" height="14" viewBox="0 0 14 14" fill="none" xmlns="http://www.w3.org/2000/svg">
<path d="M11.0833 1.75H2.91667C2.27233 1.75 1.75 2.27233 1.75 2.91667V11.0833C1.75 11.7277 2.27233 12.25 2.91667 12.25H11.0833C11.7277 12.25 12.25 11.7277 12.25 11.0833V2.91667C12.25 2.27233 11.7277 1.75 11.0833 1.75Z" stroke="white" stroke-opacity="0.7" stroke-width="0.875" stroke-linecap="round" stroke-linejoin="round"/>
<path d="M4.66406 5.83203V10.4987M4.66406 4.08203V4.08786M9.33073 10.4987V7.58203C9.33073 7.27261 9.20781 6.97587 8.98902 6.75707C8.77023 6.53828 8.47348 6.41536 8.16406 6.41536C7.85464 6.41536 7.5579 6.53828 7.3391 6.75707C7.12031 6.97587 6.9974 7.27261 6.9974 7.58203V10.4987V5.83203" stroke="white" stroke-opacity="0.7" stroke-width="0.875" stroke-linecap="round" stroke-linejoin="round"/>
</svg>
