<svg width="14" height="14" viewBox="0 0 14 14" fill="none" xmlns="http://www.w3.org/2000/svg">
<path d="M1.75 4.08333V2.91667C1.75 2.60725 1.87292 2.3105 2.09171 2.09171C2.3105 1.87292 2.60725 1.75 2.91667 1.75H4.08333" stroke="#5F15EE" stroke-linecap="round" stroke-linejoin="round"/>
<path d="M9.91406 1.75H11.0807C11.3901 1.75 11.6869 1.87292 11.9057 2.09171C12.1245 2.3105 12.2474 2.60725 12.2474 2.91667V4.08333" stroke="#5F15EE" stroke-linecap="round" stroke-linejoin="round"/>
<path d="M12.2474 9.91602V11.0827C12.2474 11.3921 12.1245 11.6888 11.9057 11.9076C11.6869 12.1264 11.3901 12.2493 11.0807 12.2493H9.91406" stroke="#5F15EE" stroke-linecap="round" stroke-linejoin="round"/>
<path d="M4.08333 12.2493H2.91667C2.60725 12.2493 2.3105 12.1264 2.09171 11.9076C1.87292 11.6888 1.75 11.3921 1.75 11.0827V9.91602" stroke="#5F15EE" stroke-linecap="round" stroke-linejoin="round"/>
<path d="M4.66406 8.16602C4.66406 8.16602 5.53906 9.33268 6.9974 9.33268C8.45573 9.33268 9.33073 8.16602 9.33073 8.16602" stroke="#5F15EE" stroke-linecap="round" stroke-linejoin="round"/>
<path d="M5.25 5.25H5.25583" stroke="#5F15EE" stroke-linecap="round" stroke-linejoin="round"/>
<path d="M8.75 5.25H8.75583" stroke="#5F15EE" stroke-linecap="round" stroke-linejoin="round"/>
</svg>
