<svg preserveAspectRatio="none" width="100%" height="100%" overflow="visible" style="display: block;" viewBox="0 0 16 16" fill="none" xmlns="http://www.w3.org/2000/svg">
<g id="material-symbols:trending-up-rounded">
<path id="Vector" d="M1.8 11.75C1.66667 11.6167 1.60267 11.4584 1.608 11.2753C1.61333 11.0922 1.67733 10.9393 1.8 10.8167L5.31667 7.25C5.57222 6.99444 5.88889 6.86667 6.26667 6.86667C6.64444 6.86667 6.96111 6.99444 7.21667 7.25L8.93333 8.98333L12.4 5.55H11.3333C11.1444 5.55 10.9862 5.486 10.8587 5.358C10.7311 5.23 10.6671 5.072 10.6667 4.884C10.6662 4.696 10.7302 4.53778 10.8587 4.40933C10.9871 4.28089 11.1453 4.21689 11.3333 4.21733H14C14.1889 4.21733 14.3473 4.28133 14.4753 4.40933C14.6033 4.53733 14.6671 4.69556 14.6667 4.884V7.55067C14.6667 7.73956 14.6027 7.898 14.4747 8.026C14.3467 8.154 14.1884 8.21778 14 8.21733C13.8116 8.21689 13.6533 8.15311 13.5253 8.026C13.3973 7.89889 13.3333 7.74044 13.3333 7.55067V6.484L9.88333 9.93333C9.62778 10.1889 9.31111 10.3167 8.93333 10.3167C8.55555 10.3167 8.23889 10.1889 7.98333 9.93333L6.26667 8.21667L2.73333 11.75C2.61111 11.8722 2.45556 11.9333 2.26667 11.9333C2.07778 11.9333 1.92222 11.8722 1.8 11.75Z" fill="var(--fill-0, #5F15EE)"/>
</g>
</svg>
