<svg preserveAspectRatio="none" width="100%" height="100%" overflow="visible" style="display: block;" viewBox="0 0 24.536 23.7914" fill="none" xmlns="http://www.w3.org/2000/svg">
<g id="Group 1686553868">
<path id="Vector" d="M8.95517 18.757C7.05257 18.9081 4.96873 18.7083 3.04682 18.7884C1.50849 18.8525 0.211825 17.8334 0.0546938 16.28C-0.0254507 15.3611 0.0153598 14.3403 0.0153598 13.3983L0.0149086 8.62509L0.016221 4.77529C0.0169593 3.65326 -0.1389 2.23904 0.500697 1.29101C0.987307 0.569707 1.77743 0.0750996 2.65849 0.0360938C3.91549 -0.0129199 5.18411 0.00857232 6.44304 0.00922857L13.2331 0.00947453L18.0042 0.00898261C18.8323 0.00890058 19.7447 -0.028506 20.5577 0.0499569C21.9814 0.187359 23.0059 1.45421 23.034 2.85046C23.0561 3.55257 23.0438 4.26558 23.0405 4.97618L23.0382 8.43786L23.0441 12.1541C23.0468 12.7451 23.1608 14.1433 22.8951 14.7144C22.8695 14.7694 22.7484 14.7929 22.6926 14.7954C22.1177 14.7263 21.3314 14.3503 20.8208 14.1042C20.7293 11.4959 20.8595 8.73165 20.8063 6.11342C20.7869 5.15394 20.8688 3.56364 20.7581 2.66639C20.4565 2.21628 20.2736 2.19023 19.7436 2.18035C19.2656 2.17141 18.7857 2.17674 18.3077 2.17744L14.589 2.18162L6.94712 2.18199C5.66662 2.18211 4.38553 2.17436 3.10527 2.18617C2.56186 2.19118 2.31248 2.45975 2.26589 2.99311C2.21462 3.57993 2.23488 4.18101 2.23476 4.77086L2.23672 8.10055L2.23496 12.9951C2.23422 13.6145 2.1177 15.9476 2.44816 16.3756C2.48015 16.4176 2.51379 16.4582 2.54902 16.4975C3.12373 16.7026 4.96311 16.6215 5.67199 16.6211L10.709 16.6217C11.2497 16.6215 12.2641 16.5416 12.7177 16.6851C13.7281 17.0047 13.7404 18.2483 12.8095 18.7403C12.4184 18.7652 11.9757 18.8047 11.5887 18.7853C10.9114 18.7419 9.69099 18.77 8.95517 18.757Z" fill="var(--fill-0, #D2C0FC)"/>
<path id="Vector_2" d="M18.2611 9.61588C18.2797 9.6151 18.2982 9.61432 18.3168 9.61354C18.6193 9.60702 18.9115 9.72367 19.1264 9.9367C19.5951 10.3979 19.4665 11.5179 19.4635 12.1661L19.4609 14.6041C20.6321 14.9926 21.8223 15.597 22.9901 16.0076C23.7282 16.2671 24.6144 17.0512 24.5304 17.8886C24.3702 19.4887 24.248 21.1293 23.9383 22.7045C23.8634 23.0817 23.3305 23.5955 22.9442 23.6689C21.7576 23.8499 20.2761 23.7758 19.0777 23.7794C18.6481 23.7758 17.7104 23.7783 17.3733 23.5463C16.7578 23.1227 16.2671 21.9309 15.9266 21.2829L14.9227 19.3688C14.3357 18.2415 13.5581 17.0596 15.3673 16.5989C16.1648 16.84 16.6625 17.5502 17.2427 18.1649L17.2436 13.266C17.2428 12.4156 17.2258 11.5625 17.2608 10.7133C17.2883 10.0474 17.5946 9.71661 18.2611 9.61588Z" fill="var(--fill-0, #8E65FD)"/>
<path id="Vector_3" d="M6.38295 7.51055L8.13395 7.50391C9.38837 7.52556 10.8351 7.53377 12.0925 7.50588L13.8522 7.51371C14.335 7.50711 14.7785 7.44263 15.1503 7.80664C15.3169 7.97132 15.4094 8.19662 15.4066 8.43082C15.4035 8.78343 15.2154 9.06697 14.9215 9.25199C14.9193 9.51273 13.9644 12.8372 13.8421 13.3596C13.8115 13.4903 13.5764 13.9657 13.4671 14.0474C13.3088 14.1657 12.8277 14.2936 12.6131 14.3022C11.7852 14.3358 10.9359 14.3235 10.1032 14.3232C9.21434 14.3229 8.29133 14.3441 7.40757 14.296C7.12718 14.2808 6.75948 14.0671 6.59726 13.8439C6.50535 13.7175 6.38328 13.4196 6.33714 13.2579C6.06492 12.3026 5.83199 11.3265 5.58504 10.3633C5.52261 10.1199 5.29067 9.40121 5.26684 9.24535C4.74664 8.78134 4.67744 8.2894 5.1216 7.73236C5.54263 7.48717 5.91152 7.50973 6.38295 7.51055Z" fill="var(--fill-0, #D2C0FC)"/>
<path id="Vector_4" d="M6.38295 7.51055L8.13395 7.50391C9.38837 7.52556 10.8351 7.53377 12.0925 7.50588L13.8522 7.51371C14.335 7.50711 14.7785 7.44263 15.1503 7.80664C15.3169 7.97132 15.4094 8.19662 15.4066 8.43082C15.4035 8.78343 15.2154 9.06697 14.9215 9.25199C14.5277 9.35601 13.9517 9.34321 13.5352 9.34329C11.0429 9.34379 8.54956 9.36474 6.05766 9.33673C5.79967 9.33386 5.51937 9.29662 5.26684 9.24535C4.74664 8.78134 4.67744 8.2894 5.1216 7.73236C5.54263 7.48717 5.91152 7.50973 6.38295 7.51055Z" fill="var(--fill-0, #8E65FD)"/>
<path id="Vector_5" d="M8.95892 18.7578C9.69474 18.7708 10.9152 18.7427 11.5924 18.7861C11.5107 21.5682 12.8213 19.4485 13.952 20.8871C14.0808 21.051 13.8877 21.9814 13.44 22.0189C11.469 22.1838 9.40755 22.0877 7.42362 22.0766C6.85441 22.0734 6.67866 21.675 6.5625 21.2133C6.91363 19.6949 7.9273 20.7633 8.7287 20.1688C9.02237 19.951 8.96671 19.1388 8.95892 18.7578Z" fill="var(--fill-0, #8E65FD)"/>
<path id="Vector_6" d="M6.375 7.51193C6.49961 6.94936 7.70711 4.93127 8.18285 4.47468C8.42664 4.24073 9.0582 4.44856 9.21525 4.78763C9.61675 5.65454 8.34748 6.72004 8.126 7.50529L6.375 7.51193Z" fill="var(--fill-0, #D2C0FC)"/>
<path id="Vector_7" d="M10.8438 5.23676C11.0736 4.18389 12.0503 4.08656 12.4721 4.99567C12.7037 5.49487 13.8122 7.1325 13.8447 7.51526L12.085 7.50742C12.0334 7.34976 11.9437 7.22614 11.8636 7.08254C11.5221 6.4703 11.1342 5.875 10.8438 5.23676Z" fill="var(--fill-0, #D2C0FC)"/>
</g>
</svg>
