<svg preserveAspectRatio="none" width="100%" height="100%" overflow="visible" style="display: block;" viewBox="0 0 16 16.0156" fill="none" xmlns="http://www.w3.org/2000/svg">
<g id="Group 1686553896">
<g id="Vector">
</g>
<path id="Vector_2" d="M7.62025 0.00263228C7.85763 0.00215381 8.13032 -0.00470579 8.36412 0.00584299C8.37351 0.355732 8.38961 0.726818 8.38961 1.07499C10.2502 1.18385 11.9887 2.03612 13.215 3.44024C14.2128 4.56179 14.8341 6.15694 14.9513 7.64705C15.3004 7.65089 15.6536 7.64624 15.9987 7.70058C15.9982 7.91222 16.0027 8.14471 15.9973 8.35456L14.941 8.39789C14.464 12.092 12.1349 14.5818 8.37262 14.949C8.32657 14.8363 8.37127 14.4651 8.37977 14.3142C11.2024 14.045 13.5775 11.8908 14.0563 9.0822C14.0965 8.84623 14.1274 8.60641 14.1587 8.36905L13.202 8.3606L13.2136 7.66158L14.202 7.63869C14.1484 7.31243 14.1032 6.99239 14.038 6.66739C13.4725 3.86018 11.1353 2.11876 8.38961 1.74479L8.35965 2.84478L7.62025 2.84371L7.60729 1.78624C7.0838 1.8183 6.57596 1.95871 6.07975 2.12001C3.61521 2.92067 1.99693 5.0573 1.88204 7.6377C2.19944 7.63162 2.46185 7.64235 2.7788 7.65997L2.794 8.35591C2.50387 8.36525 2.16993 8.39789 1.87712 8.4199C1.96429 9.93326 2.60669 11.3613 3.68048 12.4308C4.68632 13.448 6.15217 14.2186 7.60237 14.2263C7.59432 14.4746 7.60236 14.6799 7.61399 14.927C3.97866 14.6637 1.435 11.9645 1.12922 8.37446L0 8.36239L0.00178991 7.70089C0.379539 7.66883 0.757735 7.64401 1.13638 7.62643C1.40997 3.97246 3.91205 1.41518 7.57242 1.06712C7.59253 0.712499 7.60862 0.357642 7.62025 0.00263228Z" fill="var(--fill-0, #5F15EE)"/>
<path id="Vector_3" d="M7.6183 13.2629C7.8597 13.2525 8.12614 13.2349 8.36575 13.2407L8.37961 14.3138C8.37111 14.4647 8.32641 14.8359 8.37246 14.9487C8.39257 15.2875 8.36843 15.6608 8.35413 16.0027L7.64557 16.0152C7.60891 15.7196 7.59729 15.2233 7.61383 14.9266C7.6022 14.6796 7.59416 14.4743 7.60221 14.2259L7.6183 13.2629Z" fill="var(--fill-0, #5F15EE)"/>
<g id="Vector_4">
</g>
<path id="Vector_5" d="M7.65232 6.68451C8.06136 6.58985 8.49141 6.68026 8.82804 6.93175C9.16466 7.18324 9.37297 7.57023 9.39845 7.98958C9.44003 8.67912 8.98181 9.29939 8.31081 9.46248C7.87092 9.56944 7.406 9.46114 7.05865 9.17061C6.7113 8.88008 6.5222 8.44181 6.54947 7.98963C6.58747 7.35822 7.0363 6.82707 7.65232 6.68451Z" fill="var(--fill-0, #C3B6F8)"/>
</g>
</svg>
