<svg preserveAspectRatio="none" width="100%" height="100%" overflow="visible" style="display: block;" viewBox="0 0 1458 712" fill="none" xmlns="http://www.w3.org/2000/svg">
<g id="Group 1686553875">
<line id="Line 91" x1="1436" y1="466.5" y2="466.5" stroke="url(#paint0_linear_0_6)" stroke-opacity="0.34"/>
<line id="Line 89" y1="-0.5" x2="687" y2="-0.5" transform="matrix(4.37114e-08 -1 -1 -4.37114e-08 1149 687)" stroke="url(#paint1_linear_0_6)" stroke-opacity="0.08"/>
<line id="Line 92" x1="1265.5" y1="359" x2="1265.5" y2="712" stroke="url(#paint2_linear_0_6)" stroke-opacity="0.08"/>
<line id="Line 90" x1="1458" y1="169.5" x2="22" y2="169.5" stroke="url(#paint3_linear_0_6)" stroke-opacity="0.16"/>
<line id="Line 88" x1="279.5" y1="25" x2="279.5" y2="711" stroke="url(#paint4_linear_0_6)" stroke-opacity="0.08"/>
<path id="Star 1" d="M1149 123L1150.89 128.474L1156 130.5L1150.89 132.526L1149 138L1147.11 132.526L1142 130.5L1147.11 128.474L1149 123Z" fill="url(#paint5_linear_0_6)"/>
<path id="Star 2" opacity="0" d="M279 163L280.891 168.474L286 170.5L280.891 172.526L279 178L277.109 172.526L272 170.5L277.109 168.474L279 163Z" fill="url(#paint6_linear_0_6)"/>
<path id="Star 3" opacity="0" d="M1347 458L1348.89 463.474L1354 465.5L1348.89 467.526L1347 473L1345.11 467.526L1340 465.5L1345.11 463.474L1347 458Z" fill="var(--fill-0, #121212)"/>
</g>
<defs>
<linearGradient id="paint0_linear_0_6" x1="1436" y1="465.5" x2="0" y2="465.5" gradientUnits="userSpaceOnUse">
<stop offset="0.163462" stop-color="#666666" stop-opacity="0.44"/>
<stop offset="0.238266" stop-color="#666666" stop-opacity="0.1"/>
<stop offset="0.699507" stop-color="#666666" stop-opacity="0.12"/>
<stop offset="1" stop-color="white"/>
</linearGradient>
<linearGradient id="paint1_linear_0_6" x1="0" y1="0.5" x2="687" y2="0.5" gradientUnits="userSpaceOnUse">
<stop/>
<stop offset="1" stop-color="#666666" stop-opacity="0.28"/>
</linearGradient>
<linearGradient id="paint2_linear_0_6" x1="1264.5" y1="359" x2="1264.5" y2="712" gradientUnits="userSpaceOnUse">
<stop/>
<stop offset="1" stop-color="#666666" stop-opacity="0.28"/>
</linearGradient>
<linearGradient id="paint3_linear_0_6" x1="1458" y1="168.5" x2="22" y2="168.5" gradientUnits="userSpaceOnUse">
<stop/>
<stop offset="0.420533" stop-color="#242424" stop-opacity="0.05"/>
<stop offset="0.623749" stop-color="#3A3A3A" stop-opacity="0"/>
<stop offset="0.72064" stop-color="#666666" stop-opacity="0.59"/>
</linearGradient>
<linearGradient id="paint4_linear_0_6" x1="278.5" y1="25" x2="278.5" y2="711" gradientUnits="userSpaceOnUse">
<stop/>
<stop offset="1" stop-color="#666666" stop-opacity="0.28"/>
</linearGradient>
<linearGradient id="paint5_linear_0_6" x1="1138.57" y1="112.438" x2="1162.11" y2="114.595" gradientUnits="userSpaceOnUse">
<stop stop-color="#9D6EFF"/>
<stop offset="0.700815" stop-color="#C8AEFF"/>
<stop offset="1" stop-color="#5B21FF"/>
</linearGradient>
<linearGradient id="paint6_linear_0_6" x1="268.572" y1="152.438" x2="292.109" y2="154.595" gradientUnits="userSpaceOnUse">
<stop stop-color="#9D6EFF"/>
<stop offset="0.700815" stop-color="#C8AEFF"/>
<stop offset="1" stop-color="#5B21FF"/>
</linearGradient>
</defs>
</svg>
