<svg preserveAspectRatio="none" width="100%" height="100%" overflow="visible" style="display: block;" viewBox="0 0 30 40.8104" fill="none" xmlns="http://www.w3.org/2000/svg">
<g id="Group 1686553885">
<path id="Vector" d="M3.01045 36.8369L3.01255 13.1788L3.00954 4.94836C3.00741 3.4446 2.97878 1.89899 3.02678 0.393775C3.03087 0.265596 3.07926 0.213686 3.15915 0.120439C3.30127 0.0443853 3.75857 0.0113001 3.93348 0.0110467C5.87999 0.00825945 7.83048 0.00948969 9.77677 0.00996028L21.4119 0.011915L26.771 0.00996028C27.564 0.00876572 29.151 -0.0377491 29.8357 0.0810187C30.0477 0.376146 29.9728 2.58806 29.9724 3.0522L29.9699 7.85479L29.9685 28.8927L29.9668 34.7265L29.9841 36.4156C29.9874 36.6766 30.0686 37.4903 29.8295 37.626C29.4051 37.8671 28.8786 38.0105 28.4149 38.1813L25.4354 39.2713C24.4185 39.6467 23.3991 40.0151 22.3773 40.3768C21.8295 40.573 20.9568 41.1145 20.5314 40.5835C20.4389 39.7031 20.4865 37.9612 20.489 37.0248L20.4882 31.1179L20.4914 11.4973L20.4877 6.78208C20.4859 6.05579 20.4713 5.31933 20.4919 4.59419C20.5016 4.25259 21.375 3.89067 21.6677 3.7958C22.6412 3.309 23.6992 2.76236 24.684 2.31324C25.3907 1.8608 26.5673 1.40198 27.3342 0.983017L3.95715 0.989206L3.95505 25.8256L3.95143 33.7405L3.95292 36.1832C3.95455 36.5875 3.97522 37.158 3.95397 37.5475C3.86021 37.6336 3.77276 37.7212 3.66409 37.7871C3.0237 37.8034 2.38353 37.7915 1.7431 37.7958C1.33011 37.7987 0.894421 37.8356 0.483856 37.7904C0.373523 37.7784 0.24842 37.765 0.162304 37.6876C0.0593185 37.5949 -0.00221927 37.4494 6.1248e-05 37.3122C0.00201598 37.1949 0.0440425 37.1051 0.126539 37.023C0.463114 36.6881 2.48188 36.8318 3.01045 36.8369Z" fill="var(--fill-0, #2E3C48)"/>
<path id="Vector_2" d="M21.668 3.79554C22.6415 3.30874 23.6995 2.7621 24.6843 2.31299L24.6967 2.36392C24.5544 2.44363 24.4074 2.52486 24.2743 2.6189C23.5109 3.15866 22.6056 3.51272 21.7299 3.82421L21.668 3.79554Z" fill="var(--fill-0, #181D22)"/>
<path id="Vector_3" d="M29.0083 1.14404C29.1267 1.3061 28.9975 33.46 29.0546 36.9412C28.8015 37.0125 28.3224 37.2127 28.058 37.3093C27.3168 37.5732 26.5791 37.8469 25.845 38.1299C24.3868 38.6917 22.9211 39.2336 21.4483 39.7556C21.3444 39.6184 21.4017 33.4592 21.4011 32.8428L21.3989 13.7908L21.3982 7.89943C21.398 7.01742 21.3541 5.7976 21.4068 4.94718C22.8792 4.26408 24.3094 3.45554 25.7744 2.75517C26.8643 2.23417 27.933 1.69401 29.0083 1.14404Z" fill="var(--fill-0, #5F15EE)"/>
<path id="Vector_4" d="M23.6886 19.6392C24.2478 19.6404 24.6673 20.084 24.7898 20.6048C24.8837 21.0083 24.8121 21.4326 24.591 21.783C24.3803 22.1165 24.1407 22.2617 23.7677 22.3477C22.2469 22.371 22.1707 19.9044 23.6886 19.6392Z" fill="var(--fill-0, white)"/>
<path id="Vector_5" d="M12.7822 6.684C12.9083 6.66623 13.0829 6.66467 13.2128 6.66369C14.02 6.65649 14.7958 6.97591 15.364 7.54937C16.6385 8.8173 16.7397 11.0987 15.4311 12.3808C14.6178 13.1775 13.8524 13.364 12.7537 13.3658C13.7882 13.6429 14.5641 14.2616 14.9539 15.3639C15.2721 16.2639 15.6646 18.3938 16.0483 19.2318C16.2208 19.6084 17.8509 20.5916 18.257 20.9286C18.7602 21.3462 19.4262 21.5995 19.5319 22.4333C19.7016 23.3517 19.1227 24.387 18.1457 24.5388C17.834 24.5855 17.5155 24.5496 17.2221 24.4344C16.7186 24.2405 14.9055 22.9601 14.3832 22.5793C14.3428 23.3903 14.2269 24.2091 14.1793 25.0291C14.9276 26.6248 16.3614 28.3221 16.7796 30.0041C17.1425 31.4636 17.3944 33.0541 17.7442 34.5249C17.9481 35.3832 18.1477 36.2632 17.6518 37.0617C17.3724 37.5062 16.9268 37.8208 16.4143 37.9348C15.9134 38.0467 15.4158 37.9862 14.977 37.7118C14.0169 37.1109 13.9063 35.8259 13.6762 34.8036L12.964 31.6674C12.7964 30.8473 12.5743 30.6512 12.0681 30.0177C11.894 31.1434 11.6159 31.8223 11.1033 32.816L10.2938 34.4051C9.90729 35.1725 9.5305 35.945 9.14868 36.7145C8.97818 37.0584 8.76247 37.3661 8.45844 37.6043C8.03162 37.9388 7.46747 38.0369 6.93741 37.9594C5.83299 37.7983 5.10235 36.6458 5.31661 35.5728C5.43249 35.0219 5.74311 34.4463 5.98488 33.9367C6.29405 33.2731 6.60793 32.6118 6.9264 31.9526C7.14294 31.5095 7.51188 30.8052 7.67242 30.3677C7.90304 29.7391 8.03893 28.7417 8.16165 28.0487C8.39343 26.8098 8.60816 25.5678 8.80577 24.323C8.4196 25.0112 8.04512 25.4564 7.19359 25.5237C6.29872 25.5945 5.36501 24.9081 5.32125 23.979C5.31216 23.7788 5.32317 23.5781 5.35404 23.3801C5.47198 22.6134 6.38107 18.3744 6.65839 17.915C6.92984 17.4652 7.35344 17.0661 7.69758 16.6703C8.32671 15.9468 8.94462 15.2084 9.59475 14.5038C10.4261 13.6027 11.1821 13.3391 12.3881 13.291C11.9873 13.1268 11.6688 12.9936 11.3154 12.7377C10.6254 12.2415 10.1604 11.4921 10.0221 10.6536C9.72279 8.75438 10.8348 6.98315 12.7822 6.684Z" fill="var(--fill-0, #2E3C48)"/>
<path id="Vector_6" d="M10.2146 18.582C10.1695 18.5493 10.0554 18.4714 9.94984 18.5107C9.61349 18.6359 9.2966 19.1331 9.04661 19.3996C8.6199 20.5863 8.45516 21.8872 8.12025 23.1074C8.02679 23.4478 8.00239 23.8236 7.83128 24.1405C7.32783 25.0727 6.06927 24.511 6.28922 23.518C6.66438 21.8239 6.96074 20.0683 7.44971 18.4088C7.47038 18.3387 7.74849 17.9846 7.81253 17.9152C8.79663 16.8485 9.7105 15.6871 10.7548 14.6819C10.9004 14.5417 11.2936 14.382 11.4968 14.3352C13.7751 13.811 14.1042 15.652 14.5104 17.244C14.65 17.7849 14.799 18.3234 14.9572 18.8592C15.0249 19.0903 15.1869 19.67 15.3125 19.834C15.9042 20.6073 18.096 21.7582 18.6033 22.4476C18.6559 22.8098 18.6616 23.0442 18.4305 23.3668C17.9039 24.1022 16.758 23.0047 16.2189 22.6684C15.6767 22.3302 15.0359 21.9113 14.5119 21.5464C14.5323 21.2409 14.6793 20.5464 14.4698 20.3067C14.3992 20.226 14.2901 20.1941 14.1862 20.1918C14.0583 20.189 13.9382 20.229 13.8496 20.3242C13.7624 20.418 13.7189 20.5494 13.6955 20.6729C13.6214 21.0631 13.6395 21.4824 13.5948 21.879C13.507 22.657 13.1982 24.3311 13.2494 24.9995C13.319 25.9083 15.1329 28.3597 15.6111 29.3773C15.894 29.9793 15.9816 30.7078 16.1172 31.3559L16.5572 33.4279C16.6825 34.0357 17.1465 35.7309 17.0159 36.2872C17.2026 36.5819 16.8443 36.9113 16.6085 37.0424C16.4987 37.1017 16.3831 37.1499 16.2636 37.1861C16.2221 37.1647 16.01 37.059 15.985 37.0395C15.6779 36.9135 15.4669 36.9511 15.1952 36.6402C14.8188 36.2094 14.8258 35.5528 14.6846 35.0152C14.4886 34.2692 14.3237 33.522 14.1438 32.7734C13.9777 32.0817 13.8611 31.3642 13.6343 30.6925C13.517 30.3558 12.9284 29.596 12.694 29.2888L11.0155 27.0894C10.6562 26.6242 9.80936 25.6707 9.72262 25.0811C9.52429 23.7329 10.0261 22.152 10.1245 20.7831C10.1437 20.516 10.2134 20.2407 10.2099 19.9754C10.1848 19.9104 10.152 19.6004 10.1285 19.4917C10.0776 19.2565 10.0596 18.7677 10.2146 18.582Z" fill="var(--fill-0, white)"/>
<path id="Vector_7" d="M10.2077 19.9765C10.1826 19.9114 10.1497 19.6015 10.1262 19.4927C10.0753 19.2575 10.0573 18.7687 10.2123 18.583C10.4853 18.8076 10.2771 19.6319 10.2077 19.9765Z" fill="var(--fill-0, #181D22)"/>
<path id="Vector_8" d="M17.0152 36.2871C17.2019 36.5818 16.8437 36.9112 16.6079 37.0422C16.4981 37.1016 16.3825 37.1497 16.263 37.1859C16.2214 37.1646 16.0094 37.0589 15.9844 37.0393C16.5324 37.0151 16.8056 36.7856 17.0152 36.2871Z" fill="var(--fill-0, #181D22)"/>
<path id="Vector_9" d="M9.35445 26.5298C9.50157 26.6226 11.164 28.8378 11.3316 29.0929C11.0675 30.113 11.0375 31.0874 10.4864 32.0017C10.2782 32.347 10.0751 32.7923 9.89458 33.1579L8.86038 35.2357C8.6509 35.6603 8.28569 36.5225 7.96008 36.8208C7.43339 37.1187 6.79293 37.1245 6.41596 36.5902C6.21422 36.3053 6.15323 35.9441 6.25031 35.6089C6.34736 35.2668 6.65892 34.6482 6.82135 34.3086L7.89674 32.0969C8.07556 31.7309 8.39997 31.1518 8.5124 30.7907C8.92579 29.4633 9.10269 27.8946 9.35445 26.5298Z" fill="var(--fill-0, white)"/>
<path id="Vector_10" d="M12.8745 7.69952C14.1522 7.53482 15.3203 8.4399 15.48 9.71818C15.6396 10.9965 14.7299 12.161 13.451 12.3156C12.1792 12.4692 11.0226 11.5657 10.8639 10.2946C10.7051 9.02353 11.604 7.86332 12.8745 7.69952Z" fill="var(--fill-0, white)"/>
</g>
</svg>
