<svg preserveAspectRatio="none" width="100%" height="100%" overflow="visible" style="display: block;" viewBox="0 0 14 14" fill="none" xmlns="http://www.w3.org/2000/svg">
<g id="SVG">
<path id="Vector" d="M2.33532 8.16753C2.22494 8.16791 2.11671 8.13696 2.02321 8.07827C1.92972 8.01959 1.85479 7.93558 1.80714 7.836C1.75949 7.73643 1.74108 7.62538 1.75403 7.51575C1.76698 7.40613 1.81078 7.30243 1.88032 7.2167L7.65532 1.2667C7.69864 1.2167 7.75767 1.18291 7.82273 1.17088C7.88778 1.15885 7.955 1.16929 8.01333 1.2005C8.07167 1.2317 8.11766 1.28181 8.14377 1.3426C8.16987 1.40339 8.17453 1.47125 8.15699 1.53503L7.03699 5.0467C7.00396 5.13509 6.99287 5.23017 7.00467 5.32379C7.01646 5.41741 7.05079 5.50677 7.10471 5.5842C7.15863 5.66164 7.23052 5.72483 7.31423 5.76838C7.39794 5.81192 7.49097 5.83451 7.58532 5.8342H11.6687C11.779 5.83383 11.8873 5.86478 11.9808 5.92346C12.0743 5.98215 12.1492 6.06616 12.1968 6.16573C12.2445 6.26531 12.2629 6.37636 12.2499 6.48598C12.237 6.59561 12.1932 6.69931 12.1237 6.78503L6.34866 12.735C6.30534 12.785 6.2463 12.8188 6.18125 12.8309C6.1162 12.8429 6.04898 12.8324 5.99065 12.8012C5.93231 12.77 5.88631 12.7199 5.86021 12.6591C5.83411 12.5983 5.82944 12.5305 5.84699 12.4667L6.96699 8.95503C7.00001 8.86665 7.01111 8.77156 6.99931 8.67795C6.98752 8.58433 6.95319 8.49497 6.89927 8.41754C6.84535 8.3401 6.77345 8.2769 6.68975 8.23336C6.60604 8.18981 6.51301 8.16723 6.41866 8.16753H2.33532Z" stroke="var(--stroke-0, #FFB100)" stroke-width="1.16667" stroke-linecap="round" stroke-linejoin="round"/>
</g>
</svg>
