<svg preserveAspectRatio="none" width="100%" height="100%" overflow="visible" style="display: block;" viewBox="0 0 22 22" fill="none" xmlns="http://www.w3.org/2000/svg">
<g id="SVG">
<path id="Vector" d="M9.625 20.1667H5.5C5.01377 20.1667 4.54745 19.9735 4.20364 19.6297C3.85982 19.2859 3.66667 18.8196 3.66667 18.3333V3.66667C3.66667 3.18044 3.85982 2.71412 4.20364 2.3703C4.54745 2.02649 5.01377 1.83333 5.5 1.83333H12.8333C13.1238 1.83262 13.4116 1.88944 13.68 2.00052C13.9484 2.11159 14.1921 2.27473 14.3972 2.4805L17.6862 5.7695C17.8919 5.97453 18.0551 6.21829 18.1661 6.48669C18.2772 6.7551 18.334 7.04285 18.3333 7.33333V12.8333" stroke="var(--stroke-0, #5F15EE)" stroke-width="1.83333" stroke-linecap="round" stroke-linejoin="round"/>
<path id="Vector_2" d="M12.8333 1.83333V6.41667C12.8333 6.65978 12.9299 6.89294 13.1018 7.06485C13.2737 7.23676 13.5069 7.33333 13.75 7.33333H18.3333" stroke="var(--stroke-0, #5F15EE)" stroke-width="1.83333" stroke-linecap="round" stroke-linejoin="round"/>
<path id="Vector_3" d="M12.8333 18.3333L14.6667 20.1667L18.3333 16.5" stroke="var(--stroke-0, #5F15EE)" stroke-width="1.83333" stroke-linecap="round" stroke-linejoin="round"/>
</g>
</svg>
