<svg preserveAspectRatio="none" width="100%" height="100%" overflow="visible" style="display: block;" viewBox="0 0 16.0002 14.0341" fill="none" xmlns="http://www.w3.org/2000/svg">
<g id="Group 1686553912">
<path id="Vector" d="M7.76649 0.00224275C8.36192 -0.0111595 8.95691 0.0355738 9.54306 0.141735C10.9974 0.410351 12.423 1.35444 13.3628 2.52553C13.445 2.62798 13.4971 2.75891 13.4719 2.89329C13.3367 3.12879 13.0706 3.331 12.85 3.06317C9.67832 -0.786714 3.63011 0.35645 2.14909 5.20046C2.01126 5.8887 1.98535 6.55678 1.94044 7.2559C2.24616 7.01748 2.62477 6.51593 3.03649 6.54622C3.17922 6.61763 3.14452 6.57558 3.19527 6.70602C3.1546 7.17653 2.04361 8.2527 1.6719 8.63681C1.35031 8.42037 0.128415 7.2804 0.0139696 6.84995C-0.0202887 6.72101 0.0126001 6.68457 0.0727622 6.5941C0.506937 6.41104 1.01073 7.08032 1.2615 7.36879C1.0251 3.33719 3.76237 0.300719 7.76649 0.00224275Z" fill="var(--fill-0, #5F15EE)"/>
<path id="Vector_2" d="M14.3949 5.61882C14.7198 5.63774 15.824 6.88366 15.9712 7.24336C16.0212 7.36642 16.0017 7.42616 15.9482 7.53763C15.5305 7.78909 15.1711 7.26503 14.9766 6.99513C14.6871 8.4199 14.7406 9.05561 14.009 10.4742C13.1987 12.0083 11.8116 13.1569 10.1535 13.6666C8.3442 14.2409 6.8103 14.1471 5.06998 13.3498C4.6885 13.175 4.30392 12.8959 3.92394 12.7072C3.67104 12.5815 3.66799 12.5754 3.39194 12.6634L3.32448 12.6886L3.25716 12.6475C3.2099 12.4267 3.25044 12.1035 3.26799 11.871C4.03772 11.3205 4.0108 11.8592 4.50637 12.204C6.85584 13.8385 9.89887 13.6901 12.0494 11.7914C13.5148 10.4981 14.0355 8.97836 14.1482 7.09643C13.8313 7.38402 13.4617 7.72586 12.9892 7.56482C12.7138 7.22413 14.1027 5.87289 14.3949 5.61882Z" fill="var(--fill-0, #5F15EE)"/>
<path id="Vector_3" d="M7.54725 4.05214L8.22667 4.05501C8.27662 4.97579 8.26292 6.09458 8.27309 7.02611C8.60462 7.54376 9.7977 8.39132 10.2649 8.88598C10.2517 9.03526 10.1938 9.07289 10.1005 9.21195C9.94755 9.35499 9.98115 9.36636 9.80256 9.40262C9.58773 9.28853 7.71302 7.6081 7.55167 7.3473C7.48448 6.65813 7.51587 4.77766 7.54725 4.05214Z" fill="var(--fill-0, #5F15EE)"/>
</g>
</svg>
