<svg preserveAspectRatio="none" width="100%" height="100%" overflow="visible" style="display: block;" viewBox="0 0 40 30.1569" fill="none" xmlns="http://www.w3.org/2000/svg">
<g id="Group 1686553886">
<path id="Vector" d="M3.07539 0.0163944C5.50205 -0.0179647 7.99631 0.0126439 10.4296 0.0108059L28.2909 0.00750458C29.3471 0.0045413 30.1918 -0.0595633 31.0139 0.757515C31.8631 1.60149 31.6851 2.79216 31.6844 3.91082L31.6867 6.9223L31.6722 17.038C32.6438 17.6758 33.5902 18.6648 34.4814 19.4592C34.9124 19.8436 35.379 20.5829 34.4023 20.6549C34.3194 20.661 33.071 19.4697 32.84 19.2786C30.8679 17.6475 28.8961 15.976 26.8735 14.4094C25.8407 13.6147 24.4366 14.7063 24.4006 15.9563C24.3892 16.2917 24.4714 16.6236 24.6379 16.9149C24.9916 17.5208 26.1505 18.6286 26.6917 19.1863C27.342 19.8566 27.9964 20.56 28.6431 21.2336C30.5365 23.1759 29.5137 24.3365 30.297 26.5525C30.791 27.9505 31.934 28.7979 33.2743 29.2341C33.7027 29.3737 33.6577 30.0777 33.1809 30.1486C32.9067 30.1895 32.6254 30.0717 32.3771 29.9611C30.4043 29.0923 29.3744 27.6426 29.0467 25.5326C28.7378 25.6047 28.4367 25.6677 28.1168 25.6759C26.4547 25.7183 25.1757 24.3031 24.8308 22.7743C24.7317 22.335 24.7297 21.9335 24.7243 21.4859L9.11868 21.4877L4.50208 21.4935C3.93073 21.4945 2.62201 21.5292 2.11514 21.4659C1.61224 21.4069 1.1413 21.1889 0.770932 20.8435C0.238104 20.3519 0.0123322 19.6518 0.00636809 18.9421C-0.00375958 17.7327 0.00347975 16.5228 0.00546777 15.3132L0.00929397 8.47469L0.00651804 4.41293C0.00629299 3.81701 -0.0249904 2.65559 0.0515298 2.09962C0.117435 1.60149 0.338518 1.13678 0.683384 0.771394C1.34393 0.0725851 2.19455 0.0436266 3.07539 0.0163944Z" fill="var(--fill-0, #2B3A47)"/>
<path id="Vector_2" d="M2.23011 1.05628C2.29992 1.05395 2.36976 1.0523 2.43961 1.05133C4.49702 1.02965 6.58801 1.04941 8.64869 1.04998L20.2592 1.05054L26.2579 1.05099C27.3186 1.05046 28.3831 1.02574 29.4456 1.08216C29.8008 1.07151 30.4051 1.41195 30.5442 1.75644C30.7896 2.36458 30.7218 3.48463 30.7176 4.13186C30.7128 4.91106 30.7139 5.69025 30.7209 6.46944L30.704 16.2419C30.1517 15.7381 29.503 15.235 28.9223 14.7574C28.3911 14.349 27.8897 13.8672 27.3083 13.5307C25.8731 12.6999 24.4326 13.3705 23.6673 14.7023C23.4811 15.1299 23.3685 15.5522 23.3792 16.0217C23.3953 16.5232 23.5373 17.0126 23.792 17.4449C24.2204 18.1793 25.9636 19.8074 26.6586 20.4762L10.4294 20.4833L4.9668 20.4779C4.11506 20.4774 3.26013 20.4977 2.41065 20.4818C1.83067 20.5127 1.13156 19.9467 1.04446 19.3657C0.962128 18.8165 0.993861 17.9689 0.993599 17.3964L0.993374 13.518L0.990598 6.2694C0.98906 5.02906 0.982121 3.78872 0.992886 2.54853C1.00001 1.72489 1.43115 1.22957 2.23011 1.05628Z" fill="var(--fill-0, white)"/>
<path id="Vector_3" d="M5.05262 4.06526C6.53013 4.00291 8.23818 4.08116 9.73618 4.05318C10.4136 4.0405 12.3841 4.01574 12.969 4.09549C13.2043 4.12786 13.4273 4.22051 13.6162 4.36451C14.3876 4.95026 14.1994 6.10553 14.201 6.98364L14.1943 10.5051L14.1975 14.208C14.1967 15.4988 14.5229 17.317 12.7745 17.4774C11.0458 17.5052 9.2906 17.4633 7.55764 17.4761C6.63325 17.4518 5.67629 17.5391 4.75749 17.4594C4.08603 17.4011 3.57154 16.8248 3.53073 16.1631C3.4847 15.4171 3.50875 14.6791 3.50942 13.9347L3.50481 10.1839L3.50549 7.18023C3.50368 5.76719 3.18455 4.21203 5.05262 4.06526Z" fill="var(--fill-0, #2B3A47)"/>
<path id="Vector_4" d="M4.4767 14.1245C4.49358 12.9722 4.37651 5.641 4.5554 5.27288C4.84801 4.96563 6.11727 5.07254 6.5624 5.07359L8.97406 5.06466L11.3105 5.06789C11.7623 5.06897 12.2119 5.06729 12.6586 5.08694C13.2562 5.0893 13.2257 5.58612 13.2244 6.04374C13.2223 6.7633 13.2114 7.49264 13.2108 8.21624L13.2114 14.0082C13.2162 14.5054 13.3 16.059 13.0801 16.3841C12.922 16.4438 12.6833 16.4882 12.5156 16.4898C10.0823 16.5136 7.64603 16.5093 5.21253 16.4932C5.03864 16.4921 4.80476 16.452 4.64051 16.392C4.34189 16.0712 4.43469 14.9706 4.45288 14.4953C4.45791 14.3715 4.46586 14.2479 4.4767 14.1245Z" fill="var(--fill-0, #5F15EE)"/>
<path id="Vector_5" d="M4.47648 14.1245C4.49336 12.9722 4.37629 5.641 4.55518 5.27288C4.84779 4.96563 6.11705 5.07254 6.56218 5.07359L8.97384 5.06466L11.3103 5.06789C11.7621 5.06897 12.2117 5.06729 12.6584 5.08694C13.256 5.0893 13.2255 5.58612 13.2242 6.04374C13.2221 6.7633 13.2111 7.49264 13.2106 8.21624L13.2112 14.0082L13.1943 13.9842C13.0923 13.8366 13.045 13.6996 12.9503 13.5662C12.6062 13.0818 12.2402 12.7394 11.7196 12.4176C11.2425 12.1227 10.5148 11.9998 10.0112 11.7631C9.99854 11.7362 9.9859 11.7094 9.97322 11.6825C10.0353 11.3782 10.553 11.0158 10.7585 10.7441C11.8685 9.27702 11.2229 6.87177 9.31545 6.50106C8.68648 6.38235 8.03613 6.51873 7.50792 6.88025C6.94681 7.26961 6.56477 7.86721 6.44684 8.53991C6.24804 9.68569 6.64013 10.7614 7.60117 11.4168C7.72131 11.4987 7.6565 11.7733 7.55391 11.8487C7.31471 12.0079 6.97228 12.0124 6.70472 12.1138C5.93333 12.406 5.14633 12.8703 4.73335 13.6089C4.64805 13.7614 4.59321 14.0081 4.47648 14.1245Z" fill="var(--fill-0, white)"/>
<path id="Vector_6" d="M17.0805 8.78555C18.1977 8.76964 27.4602 8.71972 27.7281 8.827C27.8542 8.87752 27.9431 9.01984 27.9828 9.14366C28.0265 9.27982 28.0288 9.44475 27.9553 9.57131C27.8653 9.72615 27.7153 9.77536 27.5545 9.82168C26.5461 9.84464 17.2051 9.88402 16.908 9.7733C16.7921 9.73012 16.6981 9.62765 16.6523 9.51437C16.5931 9.36481 16.6018 9.19696 16.676 9.05427C16.7732 8.86788 16.8956 8.83832 17.0805 8.78555Z" fill="var(--fill-0, #2B3A47)"/>
<path id="Vector_7" d="M17.0008 5.37236C17.6409 5.35135 18.4245 5.37555 19.08 5.37498L23.9135 5.37825C25.1525 5.3781 26.4358 5.32239 27.6649 5.40856C27.9761 5.43035 28.2662 6.11273 27.6434 6.39042C24.1478 6.49451 20.4131 6.36817 16.9014 6.37162C16.6861 6.37181 16.3243 5.6865 17.0008 5.37236Z" fill="var(--fill-0, #2B3A47)"/>
<path id="Vector_8" d="M21.897 12.2468C22.2832 12.2383 23.1109 12.1515 23.3984 12.4118C23.6871 12.6732 23.5443 13.2298 23.0659 13.2624C22.4829 13.3022 21.9077 13.2865 21.3217 13.2838L18.2093 13.2758C17.7566 13.2839 16.5138 13.4768 16.6211 12.7294C16.6654 12.4201 16.8257 12.2871 17.13 12.2675C17.6913 12.2313 18.2595 12.2463 18.8225 12.2478C19.8473 12.253 20.8722 12.2527 21.897 12.2468Z" fill="var(--fill-0, #2B3A47)"/>
<path id="Vector_9" d="M25.7013 21.5039C26.3032 21.4885 26.929 21.4912 27.5331 21.485C27.6746 21.6248 27.8146 21.7662 27.953 21.9092C28.7916 22.7862 28.9814 23.3798 28.9551 24.5974C27.9627 24.6758 27.3845 24.7426 26.6033 23.9789C25.9308 23.3213 25.715 22.4116 25.7013 21.5039Z" fill="var(--fill-0, white)"/>
<path id="Vector_10" d="M39.9985 29.8431C39.8249 30.0291 39.6354 30.193 39.359 30.133C38.886 30.0299 39.021 29.0148 39.0225 28.6319L39.0233 26.8348L39.0251 20.2068C39.0255 19.1144 39.1005 17.7773 38.9925 16.718C38.9351 16.153 38.7967 15.5751 38.4681 15.1036C37.8777 14.2565 34.7081 12.0526 33.6492 11.2939C33.3413 11.0734 32.7723 10.7748 32.5978 10.4461C32.5374 10.3328 32.5401 10.1849 32.5757 10.0644C32.6162 9.92876 32.7156 9.80362 32.8469 9.74605C32.9831 9.68629 33.1207 9.7181 33.2516 9.77403C33.5757 9.91236 38.4381 13.5351 38.7772 13.8682C39.1673 14.2518 39.4359 14.6839 39.6456 15.1853C39.781 15.5428 39.8537 15.7875 39.9096 16.1758C40.0154 16.7372 39.9993 17.6373 39.9989 18.2193L39.9967 20.7848L39.9985 29.8431Z" fill="var(--fill-0, #2B3A47)"/>
<path id="Vector_11" d="M39.6452 15.1854C39.7806 15.5429 39.8534 15.7876 39.9093 16.1759C39.9029 16.2567 39.916 16.2205 39.8669 16.2872C39.8174 16.2269 39.7873 15.8983 39.7543 15.7572L39.7202 15.7776C39.6816 15.9741 39.7877 16.1264 39.7648 16.3326C39.6272 16.1563 39.5244 15.4017 39.6452 15.1854Z" fill="var(--fill-0, #282F37)"/>
</g>
</svg>
