<svg preserveAspectRatio="none" width="100%" height="100%" overflow="visible" style="display: block;" viewBox="0 0 22 22" fill="none" xmlns="http://www.w3.org/2000/svg">
<g id="SVG">
<path id="Vector" d="M11 20.1667V15.5833" stroke="var(--stroke-0, #5F15EE)" stroke-width="1.83333" stroke-linecap="round" stroke-linejoin="round"/>
<path id="Vector_2" d="M13.75 7.33333V1.83333" stroke="var(--stroke-0, #5F15EE)" stroke-width="1.83333" stroke-linecap="round" stroke-linejoin="round"/>
<path id="Vector_3" d="M15.5833 7.33333C15.8264 7.33333 16.0596 7.42991 16.2315 7.60182C16.4034 7.77373 16.5 8.00688 16.5 8.25V11.9167C16.5 12.8891 16.1137 13.8218 15.4261 14.5094C14.7384 15.197 13.8058 15.5833 12.8333 15.5833H9.16667C8.19421 15.5833 7.26158 15.197 6.57394 14.5094C5.88631 13.8218 5.5 12.8891 5.5 11.9167V8.25C5.5 8.00688 5.59658 7.77373 5.76849 7.60182C5.94039 7.42991 6.17355 7.33333 6.41667 7.33333H15.5833Z" stroke="var(--stroke-0, #5F15EE)" stroke-width="1.83333" stroke-linecap="round" stroke-linejoin="round"/>
<path id="Vector_4" d="M8.25 7.33333V1.83333" stroke="var(--stroke-0, #5F15EE)" stroke-width="1.83333" stroke-linecap="round" stroke-linejoin="round"/>
</g>
</svg>
